<?xml version="1.0" encoding="utf-8" ?>
<svg xmlns="http://www.w3.org/2000/svg" xmlns:xlink="http://www.w3.org/1999/xlink" width="1024" height="1024">
	<path fill="white" d="M0 0L1024 0L1024 1024L0 1024L0 0Z"/>
	<path fill="#E46A49" d="M215.041 683.902C220.428 685.256 227.594 686.953 233.123 686.379C235.625 688.499 237.266 690.222 240.701 690.455L240.898 692.384C240.582 692.403 240.265 692.425 239.948 692.44C231.017 692.874 221.636 690.027 215.041 683.902Z"/>
	<path fill="#9F2E1D" d="M645.792 203.031C652.668 205.151 657.755 209.458 661.144 215.795Q661.689 216.827 662.185 217.884C664.989 224.581 665.775 231.67 662.848 238.51C660.126 244.87 654.869 250.168 648.421 252.721C646.299 253.561 643.976 254.07 641.733 254.452C638.908 261.741 636.048 268.705 630.643 274.491C628.09 273.317 625.442 272.294 622.847 271.213C617.066 268.696 610.226 267.063 604.122 265.457L603.268 264.773C612.485 253.346 616.841 238.324 620.754 224.424C621.613 223.721 632.045 222.601 636.562 219.273C641.78 215.429 644.701 209.274 645.792 203.031Z"/>
	<path fill="#E46A49" d="M645.792 203.031C652.668 205.151 657.755 209.458 661.144 215.795Q661.689 216.827 662.185 217.884C661.84 226.468 661.72 233.564 654.957 239.936C650.786 243.865 644.77 246.096 639.044 245.847C633.747 245.616 628.74 243.4 625.211 239.393C621.085 234.707 623.594 227.981 620.754 224.424C621.613 223.721 632.045 222.601 636.562 219.273C641.78 215.429 644.701 209.274 645.792 203.031Z"/>
	<path fill="#E46A49" d="M502.646 62.935C508.491 62.7401 522.326 62.3802 527.366 64.3923Q529.185 64.6584 530.989 65.0147Q532.793 65.371 534.577 65.8166Q536.361 66.2622 538.12 66.7959Q539.88 67.3297 541.611 67.9503Q543.341 68.571 545.039 69.2769Q546.737 69.9829 548.398 70.7724Q550.058 71.562 551.677 72.4331Q553.297 73.3043 554.87 74.255Q556.444 75.2056 557.969 76.2334Q559.494 77.2611 560.965 78.3634Q562.437 79.4658 563.852 80.6399Q565.267 81.8141 566.622 83.0572Q567.976 84.3003 569.268 85.6093Q570.559 86.9182 571.784 88.2898Q573.008 89.6613 574.163 91.0921Q575.318 92.5229 576.4 94.0094C583.664 103.888 589.152 115.484 591.328 127.594C591.982 131.238 592.142 134.929 592.711 138.574C607.124 146.247 616.294 159 620.983 174.511L621.255 175.416Q617.788 175.837 614.31 176.16C614.142 179.667 613.654 183.507 614.184 186.97L614.983 187.712C614.865 188.917 614.906 188.994 615.502 190.054C611.619 191.027 607.699 190.139 603.901 189.2C580.415 183.394 569.651 167.483 557.875 147.848C547.256 158.587 535.693 163.405 520.549 163.484C498.988 163.595 482.377 154.086 467.599 139.299C465.705 149.982 462.808 159.596 455.404 167.854C443.682 180.927 425.013 187.644 407.794 188.609L407.948 188.053C408.852 184.693 409.947 180.206 407.926 177.031C406.278 174.443 403.572 174.016 400.769 173.465C403.654 159.882 414.025 147.55 424.188 138.607C426.756 136.347 430.734 134.4 432.6 131.633C432.575 131.431 432.54 131.231 432.523 131.028C431.246 116.137 441.953 96.7886 451.307 85.8743C464.288 70.7293 483.324 64.5154 502.646 62.935Z"/>
	<path fill="#B87272" d="M527.366 64.3923Q529.185 64.6584 530.989 65.0147Q532.793 65.371 534.577 65.8166Q536.361 66.2622 538.12 66.7959Q539.88 67.3297 541.611 67.9503Q543.341 68.571 545.039 69.2769Q546.737 69.9829 548.398 70.7724Q550.058 71.562 551.677 72.4331Q553.297 73.3043 554.87 74.255Q556.444 75.2056 557.969 76.2334Q559.494 77.2611 560.965 78.3634Q562.437 79.4658 563.852 80.6399Q565.267 81.8141 566.622 83.0572Q567.976 84.3003 569.268 85.6093Q570.559 86.9182 571.784 88.2898Q573.008 89.6613 574.163 91.0921Q575.318 92.5229 576.4 94.0094C583.664 103.888 589.152 115.484 591.328 127.594C591.982 131.238 592.142 134.929 592.711 138.574C585.592 136.358 577.512 131.666 569.736 129.088C535.034 117.582 498.779 114.663 462.926 122.147C456.064 123.579 449.219 125.706 442.634 128.108C439.986 129.073 435.323 131.839 432.747 131.578C433.199 131.053 433.087 131.131 433.589 130.73C437.763 127.393 443.655 125.698 448.687 124.13Q453.133 122.79 457.64 121.671Q462.147 120.551 466.703 119.655Q471.26 118.759 475.855 118.089Q480.45 117.418 485.073 116.975Q489.695 116.531 494.334 116.316Q498.973 116.1 503.616 116.114Q508.26 116.127 512.898 116.369Q517.535 116.611 522.155 117.081C532.497 118.454 543.083 119.515 553.218 122.054C560.339 123.837 567.383 127.21 574.595 128.379C575.315 126.311 574.999 123.687 574.735 121.541C574.178 117.017 573.562 112.019 572.04 107.702C571.107 105.056 569.516 102.516 568.187 100.052C562.12 88.8035 554.744 79.5816 543.636 72.9878C538.868 70.1576 532.232 68.4308 528.067 64.9936C527.83 64.7976 527.6 64.5927 527.366 64.3923Z"/>
	<path fill="#C3788A" d="M502.646 62.935C508.491 62.7401 522.326 62.3802 527.366 64.3923C527.6 64.5927 527.83 64.7976 528.067 64.9936C532.232 68.4308 538.868 70.1576 543.636 72.9878C554.744 79.5816 562.12 88.8035 568.187 100.052C569.516 102.516 571.107 105.056 572.04 107.702C573.562 112.019 574.178 117.017 574.735 121.541C574.999 123.687 575.315 126.311 574.595 128.379C567.383 127.21 560.339 123.837 553.218 122.054C543.083 119.515 532.497 118.454 522.155 117.081C525.554 105.731 525.844 92.3489 521.461 81.2372C517.69 71.6741 511.92 66.971 502.646 62.935Z"/>
	<path fill="#FF8CC2" d="M432.6 131.633C432.575 131.431 432.54 131.231 432.523 131.028C431.246 116.137 441.953 96.7886 451.307 85.8743C464.288 70.7293 483.324 64.5154 502.646 62.935C511.92 66.971 517.69 71.6741 521.461 81.2372C525.844 92.3489 525.554 105.731 522.155 117.081Q517.535 116.611 512.898 116.369Q508.26 116.127 503.616 116.114Q498.973 116.1 494.334 116.316Q489.695 116.531 485.073 116.975Q480.45 117.418 475.855 118.089Q471.26 118.759 466.703 119.655Q462.147 120.551 457.64 121.671Q453.133 122.79 448.687 124.13C443.655 125.698 437.763 127.393 433.589 130.73C433.087 131.131 433.199 131.053 432.747 131.578L432.6 131.633Z"/>
	<path fill="#F5C8AD" d="M238.148 423.583L239.151 425.005L239.522 425.277C247.504 431.21 254.699 437.588 263.182 442.917C273.416 449.346 284.351 454.091 294.804 460.023L290.249 471.542C278.239 502.914 267.788 537.541 265.412 571.181C263.137 576.656 263.964 586.678 266.173 591.947C267.165 594.312 268.778 596.066 270.483 597.926L269.961 602.366C269.958 610.307 269.777 618.329 270.281 626.254C271.229 641.181 273.234 656.091 274 671.014C268.963 680.365 262.639 687.054 252.249 690.193Q246.687 691.878 240.898 692.384L240.701 690.455C237.266 690.222 235.625 688.499 233.123 686.379C227.594 686.953 220.428 685.256 215.041 683.902C210.79 680.149 206.446 676.352 202.966 671.847C190.767 656.056 185.522 633.573 183.086 614.11C176.471 561.273 197.735 501.545 220.846 454.797C226.065 444.24 230.915 432.911 238.148 423.583Z"/>
	<path fill="#6C271B" d="M226.477 677.314C222.025 670.202 218.169 662.721 215.718 654.686L216.538 654.155L215.481 652.888L215.517 653.78L216.465 653.969L216.074 653.359C220.983 660.527 224.011 668.998 228.785 676.378L226.477 677.314Z"/>
	<path fill="#6C271B" d="M245.667 685.243C247.384 676.941 245.317 667.406 242.937 659.4C242.31 657.29 241.286 655.24 240.743 653.126C240.43 651.908 240.411 651.266 241.029 650.186L241.881 650.179C246.001 656.399 247.658 669.241 248.691 676.638C248.649 679.987 248.804 683.416 247.915 686.67C246.392 687.717 244.865 688.905 243.2 689.713C242.392 689.944 241.465 690.118 240.701 690.455C237.266 690.222 235.625 688.499 233.123 686.379C230.778 683.47 228.658 680.348 226.477 677.314L228.785 676.378Q232.048 680.648 235.268 684.951C238.828 685.382 242.089 685.478 245.667 685.243Z"/>
	<path fill="#E46A49" d="M245.667 685.243C244.825 686.406 243.975 687.539 243.058 688.645C242.827 688.643 242.596 688.65 242.365 688.641C239.004 688.507 237.475 687.408 235.268 684.951C238.828 685.382 242.089 685.478 245.667 685.243Z"/>
	<path fill="#E46A49" d="M239.151 425.005L239.522 425.277C247.504 431.21 254.699 437.588 263.182 442.917C273.416 449.346 284.351 454.091 294.804 460.023L290.249 471.542C285.262 468.511 280.4 465.371 275.768 461.809C267.903 455.761 241.752 433.444 239.151 425.005Z"/>
	<path fill="#E46A49" d="M259.493 678.069C262.946 667.703 262.407 657.147 262.893 646.391C263.449 634.086 265.796 613.695 269.961 602.366C269.958 610.307 269.777 618.329 270.281 626.254C271.229 641.181 273.234 656.091 274 671.014C268.963 680.365 262.639 687.054 252.249 690.193Q246.687 691.878 240.898 692.384L240.701 690.455C241.465 690.118 242.392 689.944 243.2 689.713C244.865 688.905 246.392 687.717 247.915 686.67C248.804 683.416 248.649 679.987 248.691 676.638C252.472 677.35 255.562 678.108 259.493 678.069Z"/>
	<path fill="#E48E73" d="M248.691 676.638C252.472 677.35 255.562 678.108 259.493 678.069C257.847 682.011 255.745 683.713 251.843 685.309C250.549 685.839 249.269 686.312 247.915 686.67C248.804 683.416 248.649 679.987 248.691 676.638Z"/>
	<path fill="#E48E73" d="M788.203 420.1C789.569 422.185 790.857 424.265 792.049 426.458C826.109 482.158 854.85 575.237 839.282 640.211C834.877 658.594 824.7 677.992 808.029 687.984C799.387 693.164 790.156 694.722 780.336 692.573L779.106 692.405C775.802 692.637 772.543 691.798 769.802 689.957L769.474 689.86C769.241 689.79 769.001 689.738 768.774 689.651C757.771 685.422 753.473 672.3 748.935 662.731L748.574 661.982C748.284 656.083 749.627 649.566 750.181 643.648Q751.476 629.591 751.577 615.475Q751.605 605.509 751.395 595.546C752.707 595.574 752.957 595.848 754.019 594.99C756.638 586.997 752.611 564.9 750.846 556.127C749.857 551.212 748.019 545.551 748.25 540.571L748.565 540.085C749.433 534.89 734.016 485.306 731.209 477.587C728.619 470.631 725.881 463.723 723.217 456.794C728.132 455.335 732.946 452.995 737.598 450.844C755.839 442.406 772.08 432.056 788.203 420.1Z"/>
	<path fill="#6C271B" d="M769.474 689.86C772.28 685.101 775.336 680.865 776.937 675.474C779.021 668.458 779.003 661.117 779.148 653.865C779.18 652.261 778.702 647.585 779.247 646.487C779.355 646.27 779.573 646.129 779.736 645.951C780.769 646.748 780.778 647.584 780.949 648.863C782.342 659.264 781.745 676.833 774.991 685.208C773.554 686.99 771.65 688.625 769.802 689.957L769.474 689.86Z"/>
	<path fill="#6C271B" d="M779.106 692.405C781.913 690.806 785.05 690.115 788.009 688.865C793.769 686.432 798.422 680.488 801.444 675.168C802.614 673.108 809.705 657.77 810.382 657.485C810.624 657.384 810.907 657.512 811.169 657.525C812.195 661.154 806.657 671.074 804.834 674.289C800.497 681.933 793.752 689.811 784.915 692.03C783.382 692.415 781.909 692.531 780.336 692.573L779.106 692.405Z"/>
	<path fill="#E46A49" d="M788.203 420.1C789.569 422.185 790.857 424.265 792.049 426.458C786.487 432.646 781.267 439.224 775.449 445.17C765.652 455.183 744.147 472.591 731.209 477.587C728.619 470.631 725.881 463.723 723.217 456.794C728.132 455.335 732.946 452.995 737.598 450.844C755.839 442.406 772.08 432.056 788.203 420.1Z"/>
	<path fill="#E2C5B9" d="M375.112 892.373C399.614 899.903 425.17 899.13 450.47 897.9C450.479 901.571 450.425 905.254 450.51 908.924C471.776 908.026 493.185 907.036 514.471 907.088C533.527 907.135 552.576 908.169 571.629 908.007L571.986 919.185C594.791 919.795 617.737 919.333 640.558 919.363C641.662 917.107 642.968 913.38 644.942 911.8C646.413 910.623 647.716 911.044 649.459 911.147L649.955 911.955C680.7 915.383 711.351 918.106 741.853 923.493C755.267 925.862 769.6 928.399 782.273 933.504C785.616 934.85 792.875 937.357 794.007 941.206C794.381 942.478 793.982 943.765 793.258 944.821C786.943 954.036 759.137 957.993 748.327 959.775C695.807 968.43 642.171 970.9 589.045 972.762C563.727 973.649 538.316 973.555 512.986 973.525Q470.945 973.599 428.916 972.597C392.717 971.497 259.951 965.919 235.973 947.854C234.307 946.6 232.524 944.831 232.505 942.59C232.492 940.946 233.432 939.521 234.513 938.365C247.577 924.397 320.419 916.402 341.02 913.794C353.566 912.205 366.253 910.127 378.873 909.38C378.082 903.691 376.582 897.919 375.112 892.373Z"/>
	<path fill="#010102" d="M389.278 945.418C396.918 945.816 448.87 944.529 451.539 946.078C451.695 947.247 451.809 947.612 451.353 948.735C449.985 949.328 448.785 949.474 447.298 949.557C442.343 949.834 437.238 949.469 432.269 949.465L397.95 949.409L358.242 949.074C350.613 949.023 342.929 949.266 335.313 948.844C334.208 947.909 334.459 946.908 334.313 945.516L389.278 945.418Z"/>
	<path fill="#FEFEFD" d="M371.692 941.089C380.766 941.086 389.865 940.936 398.936 941.09C407.02 941.577 448.297 940.445 451.165 942.098C451.194 943.138 451.435 943.916 450.825 944.79C445.741 945.421 440.353 945.055 435.231 945.036Q420.608 944.955 405.985 945.043C400.466 945.072 394.768 944.858 389.278 945.418L334.313 945.516L333.68 945C333.84 943.647 333.797 943.252 334.618 942.193C340.762 939.996 363.283 941.604 371.692 941.089Z"/>
	<path fill="#010102" d="M575.843 941.139C591.519 940.6 607.345 940.969 623.036 940.89C644.383 940.781 665.777 940.355 687.118 940.672C687.879 940.91 688.781 940.912 689.165 941.669C689.687 942.697 689.765 943.859 689.919 944.987C690.002 945.132 690.119 945.263 690.168 945.423C690.583 946.77 690.561 947.289 690.004 948.49C688.358 949.235 686.681 949.395 684.892 949.444C680.609 949.562 676.307 949.21 672.02 949.232L615.312 949.328L588.086 949.415C583.024 949.438 577.594 949.848 572.592 949.199C571.648 947.923 571.882 946.505 571.91 944.997C571.991 943.694 571.867 942.935 572.579 941.8L575.843 941.139Z"/>
	<path fill="#FEFEFD" d="M575.843 941.139C591.519 940.6 607.345 940.969 623.036 940.89C644.383 940.781 665.777 940.355 687.118 940.672C687.879 940.91 688.781 940.912 689.165 941.669C689.687 942.697 689.765 943.859 689.919 944.987L571.91 944.997C571.991 943.694 571.867 942.935 572.579 941.8L575.843 941.139Z"/>
	<path fill="#F5C8AD" d="M375.112 892.373C399.614 899.903 425.17 899.13 450.47 897.9C450.479 901.571 450.425 905.254 450.51 908.924C450.685 912.01 450.911 915.104 450.989 918.193L409.391 918.057C401.949 918.035 394.35 917.7 386.925 918.115C385.42 918.164 384.212 918.142 382.753 917.748C381.022 916.425 380.429 914.074 379.638 912.107L378.873 909.38C378.082 903.691 376.582 897.919 375.112 892.373Z"/>
	<path fill="#010102" d="M640.558 919.363C641.662 917.107 642.968 913.38 644.942 911.8C646.413 910.623 647.716 911.044 649.459 911.147L649.955 911.955C649.424 915.11 648.67 918.084 647.749 921.148L648.422 921.48C657.392 925.858 667.267 929.058 676.578 932.684C680.001 934.017 683.954 935.198 687.071 937.104C687.941 937.636 688.366 938.238 688.842 939.141L688.645 940.242L687.118 940.672C665.777 940.355 644.383 940.781 623.036 940.89C607.345 940.969 591.519 940.6 575.843 941.139C574.444 941.127 573.371 941.212 572.05 940.682C571.14 933.784 571.799 926.157 571.986 919.185C594.791 919.795 617.737 919.333 640.558 919.363Z"/>
	<path fill="#834D55" d="M646.963 923.094C651.065 924.293 655.2 926.539 659.133 928.241C666.114 931.263 673.166 934.121 680.117 937.213C652.73 938.209 625.043 937.482 597.625 937.495L574.527 937.538L574.494 923.563C587.62 923.791 600.771 923.552 613.9 923.515C621.094 923.494 628.441 923.223 635.602 923.91C636.964 926.27 637.935 929.808 640.183 931.457C641.291 932.271 641.697 932.32 643.022 932.066C645.623 929.652 646.091 926.402 646.963 923.094Z"/>
	<path fill="#010102" d="M367.559 923.318C371.995 919.932 375.936 916.285 379.638 912.107C380.429 914.074 381.022 916.425 382.753 917.748C384.212 918.142 385.42 918.164 386.925 918.115C408.252 919.6 430.092 918.114 451.493 918.49Q452.051 929.756 451.878 941.034C434.373 940.99 416.39 940.069 398.936 941.09C389.865 940.936 380.766 941.086 371.692 941.089C359.383 940.554 346.899 940.954 334.57 940.967C335.81 939.34 337.153 937.964 338.637 936.56C343.238 933.947 348.604 933.106 353.542 931.304C358.563 929.472 363.117 926.239 367.559 923.318Z"/>
	<path fill="#7B4C3F" d="M367.559 923.318C372.18 924.125 377.063 924.267 380.972 927.063C381.294 928.07 381.626 929.035 381.811 930.08C379.473 931.624 379.305 933.605 378.784 936.165Q378.636 936.896 378.495 937.629C383.627 937.429 389.045 936.986 394.146 937.578C384.249 938.397 374.024 938.068 364.087 938.064C357.012 938.061 349.552 938.48 342.526 937.775C341.09 937.631 339.912 937.217 338.637 936.56C343.238 933.947 348.604 933.106 353.542 931.304C358.563 929.472 363.117 926.239 367.559 923.318Z"/>
	<path fill="#834D55" d="M380.972 927.063C380.571 925.714 380.235 924.695 380.455 923.265C381.75 922.335 382.565 922.518 384.132 922.448C405.438 923.099 426.864 921.903 448.153 923.023C448.593 927.852 449.054 932.656 449.103 937.51L412.608 937.59C406.499 937.602 400.24 937.904 394.146 937.578C389.045 936.986 383.627 937.429 378.495 937.629Q378.636 936.896 378.784 936.165C379.305 933.605 379.473 931.624 381.811 930.08C381.626 929.035 381.294 928.07 380.972 927.063Z"/>
	<path fill="#0F0D1B" d="M380.972 927.063C380.571 925.714 380.235 924.695 380.455 923.265C381.75 922.335 382.565 922.518 384.132 922.448C383.393 924.981 382.759 927.618 381.811 930.08C381.626 929.035 381.294 928.07 380.972 927.063Z"/>
	<path fill="#F5C8AD" d="M467.599 139.299C482.377 154.086 498.988 163.595 520.549 163.484C535.693 163.405 547.256 158.587 557.875 147.848C569.651 167.483 580.415 183.394 603.901 189.2C607.699 190.139 611.619 191.027 615.502 190.054C614.906 188.994 614.865 188.917 614.983 187.712L614.184 186.97C613.654 183.507 614.142 179.667 614.31 176.16Q617.788 175.837 621.255 175.416C629.311 176.707 635.429 179.561 640.376 186.28C643.911 191.082 646.228 197.018 645.792 203.031C644.701 209.274 641.78 215.429 636.562 219.273C632.045 222.601 621.613 223.721 620.754 224.424C616.841 238.324 612.485 253.346 603.268 264.773C598.61 270.183 594.078 275.623 588.63 280.272C570.757 295.521 546.517 301.441 523.545 303.154C491.689 305.529 455.503 300.028 430.665 278.644C426.898 275.4 423.293 271.964 419.675 268.556C418.82 266.808 417.627 265.276 416.495 263.7C411.847 264.679 407.293 266.176 402.744 267.531C399.015 268.589 394.345 269.401 390.959 271.252C386.427 267.224 383.553 262.162 380.543 256.99C377.837 255.753 375.317 254.464 372.793 252.882C371.917 252.332 371.067 251.685 370.256 251.043C364.599 246.569 360.099 240.376 359.418 233.032C358.232 220.249 367.367 209.921 374.852 200.702C375.016 195.388 375.833 190.561 378.646 185.96C381.77 180.85 387.572 176.165 393.495 174.698C395.636 174.168 397.878 174.192 400.019 173.659L400.769 173.465C403.572 174.016 406.278 174.443 407.926 177.031C409.947 180.206 408.852 184.693 407.948 188.053L407.794 188.609C425.013 187.644 443.682 180.927 455.404 167.854C462.808 159.596 465.705 149.982 467.599 139.299Z"/>
	<path fill="#010102" d="M615.502 190.054C614.906 188.994 614.865 188.917 614.983 187.712C620.24 190.48 626.299 193.792 628.343 199.777C629.452 203.023 628.689 205.902 627.11 208.833C626.145 210.623 625.122 212.906 623.167 213.69L622.643 213.323C624.001 210.224 625.856 207.188 626.927 204C625.013 197.376 621.624 193.544 615.68 190.144C615.622 190.111 615.561 190.084 615.502 190.054Z"/>
	<path fill="#010102" d="M507.659 191.694L509.039 192.43C510.704 196.955 506.19 202.937 506.962 207.606C507.182 208.937 507.836 209.875 508.92 210.654C509.576 211.124 509.342 211.016 510.122 210.914C511.592 209.326 511.956 206.492 512.192 204.404C512.316 203.304 512.277 203.117 512.891 202.149C514.079 202.423 513.945 202.567 514.662 203.47C514.657 203.59 514.65 203.711 514.646 203.831C514.562 206.675 514.496 209.123 512.578 211.396C511.51 212.661 510.491 212.947 508.903 213.103C507.5 212.599 506.607 211.897 505.922 210.573C503.359 205.613 506.238 196.746 507.659 191.694Z"/>
	<path fill="#010102" d="M492.828 218.813C495.673 220.505 498.645 225.109 502.569 227.496C508.673 231.208 518.09 230.838 523.936 226.664C525.961 225.217 527.948 222.002 530.236 221.374L530.825 222.783C529.731 224.475 528.492 225.965 526.945 227.268C522.466 231.044 515.975 232.373 510.254 231.938C504.889 231.53 498.69 229.265 495.204 224.983C493.688 223.119 492.577 221.194 492.828 218.813Z"/>
	<path fill="#010102" d="M395.19 212.947C393.225 211.113 391.562 209.446 390.707 206.828C389.723 203.815 390.119 201.019 391.559 198.234C394.353 192.831 397.095 190.666 402.77 188.842L403.847 189.781L404.327 188.781L403.539 188.676L403.976 189.642C401.386 192.736 397.248 194.452 394.655 197.643C393.216 199.414 392.626 202.759 393.053 204.971C393.533 207.454 394.66 208.573 396.7 209.964C396.861 210.074 397.025 210.18 397.187 210.288C397.64 213.581 398.248 216.864 398.793 220.143L398.322 221.276L397.258 221.593C396.802 221.3 396.355 221.076 396.01 220.653C396.537 218.304 395.614 215.308 395.19 212.947Z"/>
	<path fill="#985B2A" d="M470.444 169.549C472.312 169.213 474.202 169.242 475.852 170.246C476.205 171.436 476.231 171.971 475.59 173.086C472.513 178.438 463.121 180.482 457.636 182.246C456.149 182.675 455.317 182.577 453.83 182.318C453.293 182.225 453.208 181.424 452.913 180.966C452.945 180.522 452.932 180.301 453.118 179.848C455.244 174.662 465.549 171.215 470.444 169.549Z"/>
	<path fill="#985B2A" d="M548.415 171.396C553.21 171.57 558.591 173.374 563.078 174.971C566.464 176.176 570.675 177.576 572.304 181.03C572.392 182.572 571.929 183.256 571.137 184.495C570.07 184.741 568.988 184.88 567.903 184.665C562.725 183.635 550.688 179.658 547.869 175.349C547.434 173.749 547.847 172.865 548.415 171.396Z"/>
	<path fill="#010102" d="M460.601 200.91C459.821 199.716 459.146 198.339 458.966 196.906Q458.918 196.512 458.911 196.115Q458.904 195.719 458.938 195.323Q458.972 194.928 459.047 194.538Q459.122 194.148 459.238 193.769Q459.353 193.389 459.508 193.023Q459.662 192.658 459.854 192.31Q460.045 191.963 460.272 191.637Q460.499 191.311 460.758 191.011C462.221 189.331 464.391 188.258 466.627 188.204C469.476 188.137 471.743 189.3 473.704 191.267C474.577 193.323 474.768 195.21 473.884 197.327C472.891 199.704 470.758 201.392 468.369 202.239C466.261 202.988 464.696 202.733 462.597 202.16L460.601 200.91Z"/>
	<path fill="#FEFEFD" d="M467.812 194.291C467.834 193.845 467.846 193.248 467.954 192.825C468.298 191.481 468.658 191.201 469.724 190.458C471.308 190.348 472.129 190.969 473.409 191.77C473.225 193.895 473.02 194.521 471.32 196.015L467.812 194.291Z"/>
	<path fill="#081E12" d="M467.812 194.291L471.32 196.015C470.221 198.58 468.951 200.056 466.245 201.026C465.429 201.318 464.578 201.515 463.739 201.728C462.93 201.933 463.271 201.8 462.597 202.16L460.601 200.91C462.095 196.554 464.954 197.103 467.812 194.291Z"/>
	<path fill="#010102" d="M555.239 188.498C556.296 188.486 557.315 188.642 558.337 188.912C560.347 189.443 562.321 190.687 563.207 192.637C563.929 194.227 563.818 195.985 563.276 197.607C562.214 200.782 559.869 202.285 557.01 203.699C555.546 203.77 554.078 203.846 552.66 203.403Q552.329 203.296 552.012 203.155Q551.694 203.014 551.393 202.841Q551.092 202.667 550.811 202.462Q550.53 202.258 550.272 202.025Q550.014 201.792 549.782 201.533Q549.551 201.274 549.347 200.992Q549.144 200.71 548.972 200.408Q548.799 200.106 548.66 199.788C547.783 197.767 548.074 195.513 548.955 193.548C550.249 190.658 552.414 189.594 555.239 188.498Z"/>
	<path fill="#FEFEFD" d="M557.852 190.728C559.472 190.922 560.427 191.045 561.633 192.202C561.667 193.791 561.259 194.256 560.503 195.621C559.066 195.356 558.12 195.201 556.965 194.217C556.705 192.537 557.094 192.204 557.852 190.728Z"/>
	<path fill="#E48E73" d="M564.169 208.584C567.11 208.391 569.963 208.361 572.787 209.335C576.427 210.59 579.507 213.082 581.177 216.59C582.637 219.658 582.92 223.286 581.71 226.487C579.987 231.046 576.495 233.289 572.329 235.306C569.251 235.82 566.532 236.27 563.495 235.231C559.838 233.981 556.998 231.218 555.484 227.679C553.889 223.951 553.83 219.4 555.551 215.704C557.337 211.868 560.282 209.924 564.169 208.584Z"/>
	<path fill="#E48E73" d="M448.889 207.562C451.494 207.531 454.109 207.93 456.512 208.977C460.057 210.521 462.883 213.327 464.227 216.98Q464.461 217.633 464.627 218.307Q464.793 218.981 464.89 219.668Q464.987 220.355 465.014 221.048Q465.04 221.742 464.996 222.434Q464.952 223.127 464.838 223.811Q464.723 224.496 464.54 225.165Q464.357 225.834 464.106 226.481Q463.856 227.129 463.541 227.747C461.3 232.122 457.884 234.087 453.442 235.639C450.177 235.732 446.985 235.471 444.047 233.933Q443.414 233.609 442.817 233.221Q442.221 232.833 441.668 232.385Q441.115 231.938 440.611 231.435Q440.108 230.932 439.659 230.38Q439.211 229.828 438.822 229.232Q438.433 228.636 438.108 228.003Q437.783 227.37 437.526 226.707Q437.268 226.043 437.081 225.357Q436.895 224.664 436.78 223.956Q436.665 223.247 436.622 222.531Q436.579 221.815 436.608 221.098Q436.638 220.381 436.739 219.671Q436.84 218.961 437.012 218.264Q437.185 217.568 437.426 216.892Q437.668 216.216 437.976 215.568Q438.284 214.921 438.656 214.307C441.056 210.401 444.592 208.667 448.889 207.562Z"/>
	<path fill="#9F2E1D" d="M398.793 220.143C401.642 235.626 406.948 251.012 416.495 263.7C411.847 264.679 407.293 266.176 402.744 267.531C399.015 268.589 394.345 269.401 390.959 271.252C386.427 267.224 383.553 262.162 380.543 256.99C377.837 255.753 375.317 254.464 372.793 252.882C377.038 252.252 380.952 250.919 384.431 248.347C393.702 241.497 394.242 231.183 395.627 220.797L396.01 220.653C396.355 221.076 396.802 221.3 397.258 221.593L398.322 221.276L398.793 220.143Z"/>
	<path fill="#E46A49" d="M374.852 200.702C376.356 207.494 378.656 214.859 384.986 218.707C388.057 220.573 392.082 221.296 395.627 220.797C394.242 231.183 393.702 241.497 384.431 248.347C380.952 250.919 377.038 252.252 372.793 252.882C371.917 252.332 371.067 251.685 370.256 251.043C364.599 246.569 360.099 240.376 359.418 233.032C358.232 220.249 367.367 209.921 374.852 200.702Z"/>
	<path fill="#7B4C3F" d="M733.904 605.084C737.535 603.066 747.927 595.86 751.395 595.546Q751.605 605.509 751.577 615.475Q751.476 629.591 750.181 643.648C749.627 649.566 748.284 656.083 748.574 661.982C745.581 679.534 742.999 697.036 739.03 714.422C732.707 742.11 721.116 775.851 709.356 801.714C704.734 811.88 700.041 822.118 694.694 831.924C691.403 837.959 687.014 844.022 684.336 850.303C686.182 850.533 687.965 850.954 689.294 852.376C690.829 854.018 690.889 856.531 690.622 858.63C689.956 863.869 686.251 873.428 682.013 876.706C681.904 876.79 681.785 876.862 681.672 876.94C676.704 879.583 663.739 879.401 657.703 879.58Q656.092 886.876 654.156 894.093C652.076 899.53 651.74 906.009 649.459 911.147C647.716 911.044 646.413 910.623 644.942 911.8C642.968 913.38 641.662 917.107 640.558 919.363C617.737 919.333 594.791 919.795 571.986 919.185L571.629 908.007C552.576 908.169 533.527 907.135 514.471 907.088C493.185 907.036 471.776 908.026 450.51 908.924C450.425 905.254 450.479 901.571 450.47 897.9C425.17 899.13 399.614 899.903 375.112 892.373C373.273 888.902 372.428 884.257 371.367 880.447C362.856 879.387 347.116 878.017 339.792 874.218C336.042 872.273 334.704 868.842 333.491 864.999C332.378 861.474 329.84 852.831 331.927 849.541C332.377 848.831 333.673 848.73 334.459 848.516C331.482 842.479 328.224 836.611 325.371 830.504C308.813 795.054 293.614 754.895 283.752 717.05C279.788 701.837 276.889 686.456 274 671.014C273.234 656.091 271.229 641.181 270.281 626.254C269.777 618.329 269.958 610.307 269.961 602.366L270.483 597.926C272.56 599.781 274.688 601.599 276.657 603.569C297.745 618.719 322.098 628.562 346.601 636.747C428.867 664.229 511.633 667.039 596.705 653.16Q606.717 651.534 616.642 649.438Q626.566 647.343 636.381 644.782Q646.195 642.221 655.879 639.201Q665.562 636.18 675.092 632.707C680.623 630.714 686.953 628.846 692.132 626.087L693.397 625.841C698.159 622.633 704.74 620.497 709.966 617.979C717.592 614.306 724.962 610.06 732.344 605.924L733.904 605.084Z"/>
	<path fill="#010102" d="M536.907 848.85C539.972 847.35 562.105 850.107 566.71 850.42C583.381 851.552 600.204 852.8 616.913 852.931C630.197 853.034 643.497 852.123 656.781 852.09C657.468 852.725 657.332 852.4 657.477 852.887C623.197 856.059 588.36 854.62 554.156 851.164C548.913 850.634 541.822 850.676 536.907 848.85Z"/>
	<path fill="#B87272" d="M334.459 848.516L334.634 849.252C334.741 849.179 334.838 849.091 334.953 849.033C334.959 849.03 336.189 848.509 336.227 848.506C338.682 848.367 342.705 849.645 345.279 850.019Q358.44 852.025 371.691 853.312C391.954 855.107 413.283 854.308 433.56 853.161Q443.686 852.639 453.784 851.723C459.631 851.164 478.467 847.81 483.134 848.992L483.382 848.707C485.661 849.194 487.923 849.052 490.238 849.006C491.061 855.914 492.293 867.168 487.728 873.014C486.395 874.722 484.653 875.872 482.63 876.616C475.171 879.361 459.537 879.669 451.02 880.452C450.884 886.265 450.547 892.089 450.47 897.9C425.17 899.13 399.614 899.903 375.112 892.373C373.273 888.902 372.428 884.257 371.367 880.447C362.856 879.387 347.116 878.017 339.792 874.218C336.042 872.273 334.704 868.842 333.491 864.999C332.378 861.474 329.84 852.831 331.927 849.541C332.377 848.831 333.673 848.73 334.459 848.516Z"/>
	<path fill="#010102" d="M334.634 849.252C334.741 849.179 334.838 849.091 334.953 849.033C334.959 849.03 336.189 848.509 336.227 848.506C338.682 848.367 342.705 849.645 345.279 850.019Q358.44 852.025 371.691 853.312C391.954 855.107 413.283 854.308 433.56 853.161Q443.686 852.639 453.784 851.723C459.631 851.164 478.467 847.81 483.134 848.992C480.169 852.276 433.199 855.4 425.999 855.767Q416.626 856.275 407.24 856.34Q397.853 856.405 388.474 856.026Q379.095 855.647 369.745 854.826Q360.394 854.004 351.093 852.742C345.782 852.02 339.452 851.621 334.634 849.252Z"/>
	<path fill="#E46A49" d="M371.367 880.447C388.477 881.592 405.345 882.2 422.499 881.784C432.001 881.553 441.537 880.542 451.02 880.452C450.884 886.265 450.547 892.089 450.47 897.9C425.17 899.13 399.614 899.903 375.112 892.373C373.273 888.902 372.428 884.257 371.367 880.447Z"/>
	<path fill="#7B4C3F" d="M733.904 605.084C737.535 603.066 747.927 595.86 751.395 595.546Q751.605 605.509 751.577 615.475Q751.476 629.591 750.181 643.648C749.627 649.566 748.284 656.083 748.574 661.982C745.581 679.534 742.999 697.036 739.03 714.422C732.707 742.11 721.116 775.851 709.356 801.714C704.734 811.88 700.041 822.118 694.694 831.924C691.403 837.959 687.014 844.022 684.336 850.303C682.637 851.736 678.539 851.162 676.329 851.044L673.933 851.423C670.912 851.522 668.002 851.785 665.009 852.215C670.598 847.255 674.597 838.489 678.136 831.983C703.618 785.126 715.983 732.599 725.438 680.508Q724.065 680.111 722.73 679.602C708.696 674.344 700.124 665.254 694.155 651.73C691.468 642.657 691.267 635.463 692.132 626.087L693.397 625.841C698.159 622.633 704.74 620.497 709.966 617.979C717.592 614.306 724.962 610.06 732.344 605.924L733.904 605.084Z"/>
	<path fill="#010102" d="M733.904 605.084C737.535 603.066 747.927 595.86 751.395 595.546Q751.605 605.509 751.577 615.475C746.213 617.284 736.894 625.482 732.077 629.138C731.07 661.341 725.592 692.08 718.379 723.401C710.321 758.395 700.439 792.981 683.778 824.983C680.788 830.727 677.808 836.555 674.677 842.218C673.394 844.538 671.317 846.767 670.415 849.235C670.135 850.002 670.199 849.724 670.758 850.447C672.485 850.563 674.169 850.563 675.898 850.517L676.329 851.044L673.933 851.423C670.912 851.522 668.002 851.785 665.009 852.215C670.598 847.255 674.597 838.489 678.136 831.983C703.618 785.126 715.983 732.599 725.438 680.508Q724.065 680.111 722.73 679.602C708.696 674.344 700.124 665.254 694.155 651.73C691.468 642.657 691.267 635.463 692.132 626.087L693.397 625.841C698.159 622.633 704.74 620.497 709.966 617.979C717.592 614.306 724.962 610.06 732.344 605.924L733.904 605.084Z"/>
	<path fill="#562415" d="M733.904 605.084C737.535 603.066 747.927 595.86 751.395 595.546Q751.605 605.509 751.577 615.475C746.213 617.284 736.894 625.482 732.077 629.138C732.165 621.07 733.005 613.093 733.904 605.084Z"/>
	<path fill="#562415" d="M732.344 605.924C731.548 610.778 730.884 615.578 730.716 620.504C730.536 625.771 730.891 631.36 730.064 636.557C730.037 634.493 729.986 632.426 730.04 630.362L709.207 642.358C704.798 644.953 700.427 647.944 695.767 650.049C693.406 641.877 693.969 634.187 693.397 625.841C698.159 622.633 704.74 620.497 709.966 617.979C717.592 614.306 724.962 610.06 732.344 605.924Z"/>
	<path fill="#7B4C3F" d="M730.04 630.362C729.986 632.426 730.037 634.493 730.064 636.557C729.714 650.802 727.429 664.49 725.7 678.586C713.12 674.059 703.753 667.115 697.906 654.786Q696.809 652.43 695.767 650.049C700.427 647.944 704.798 644.953 709.207 642.358L730.04 630.362Z"/>
	<path fill="#B87272" d="M571.139 879.043C563.99 878.823 543.989 878.844 538.648 875.546C535.412 873.548 534.026 870.309 533.165 866.744C532.218 862.826 530.368 852.681 532.39 849.412C534.008 848.424 534.863 848.593 536.729 848.553L536.907 848.85C541.822 850.676 548.913 850.634 554.156 851.164C588.36 854.62 623.197 856.059 657.477 852.887C659.865 853.069 662.651 852.614 665.009 852.215C668.002 851.785 670.912 851.522 673.933 851.423L676.329 851.044C678.539 851.162 682.637 851.736 684.336 850.303C686.182 850.533 687.965 850.954 689.294 852.376C690.829 854.018 690.889 856.531 690.622 858.63C689.956 863.869 686.251 873.428 682.013 876.706C681.904 876.79 681.785 876.862 681.672 876.94C676.704 879.583 663.739 879.401 657.703 879.58Q656.092 886.876 654.156 894.093C652.076 899.53 651.74 906.009 649.459 911.147C647.716 911.044 646.413 910.623 644.942 911.8C642.968 913.38 641.662 917.107 640.558 919.363C617.737 919.333 594.791 919.795 571.986 919.185L571.629 908.007Q571.394 898.399 571.473 888.788C571.525 885.544 571.293 882.285 571.139 879.043Z"/>
	<path fill="#834D55" d="M684.336 850.303C686.182 850.533 687.965 850.954 689.294 852.376C690.829 854.018 690.889 856.531 690.622 858.63C689.956 863.869 686.251 873.428 682.013 876.706C681.904 876.79 681.785 876.862 681.672 876.94C680.919 871.428 687.88 863.277 688.252 856.959C688.34 855.469 688.088 853.865 686.921 852.813C684.332 850.478 677.366 851.578 673.933 851.423L676.329 851.044C678.539 851.162 682.637 851.736 684.336 850.303Z"/>
	<path fill="#E46A49" d="M571.139 879.043C583.915 880.682 597.812 879.973 610.696 880.083C625.751 880.213 642.762 881.098 657.703 879.58Q656.092 886.876 654.156 894.093C646.588 894.608 638.865 894.148 631.293 893.916C611.094 893.299 591.493 891.718 571.473 888.788C571.525 885.544 571.293 882.285 571.139 879.043Z"/>
	<path fill="#F5C8AD" d="M571.473 888.788C591.493 891.718 611.094 893.299 631.293 893.916C638.865 894.148 646.588 894.608 654.156 894.093C652.076 899.53 651.74 906.009 649.459 911.147C647.716 911.044 646.413 910.623 644.942 911.8C642.968 913.38 641.662 917.107 640.558 919.363C617.737 919.333 594.791 919.795 571.986 919.185L571.629 908.007Q571.394 898.399 571.473 888.788Z"/>
	<path fill="white" d="M512.512 738.031C514.299 751.58 517.322 765.077 519.941 778.49C524.544 802.055 529.011 825.764 536.729 848.553C534.863 848.593 534.008 848.424 532.39 849.412C530.368 852.681 532.218 862.826 533.165 866.744C534.026 870.309 535.412 873.548 538.648 875.546C543.989 878.844 563.99 878.823 571.139 879.043C571.293 882.285 571.525 885.544 571.473 888.788Q571.394 898.399 571.629 908.007C552.576 908.169 533.527 907.135 514.471 907.088C493.185 907.036 471.776 908.026 450.51 908.924C450.425 905.254 450.479 901.571 450.47 897.9C450.547 892.089 450.884 886.265 451.02 880.452C459.537 879.669 475.171 879.361 482.63 876.616C484.653 875.872 486.395 874.722 487.728 873.014C492.293 867.168 491.061 855.914 490.238 849.006C487.923 849.052 485.661 849.194 483.382 848.707C489.873 832.031 494.604 815.383 499.273 798.14C504.649 778.29 509.595 758.421 512.512 738.031Z"/>
	<path fill="#562415" d="M694.155 651.73C687.516 654.827 681.109 658.423 674.455 661.53C641.81 676.775 610.395 688.691 574.926 695.636C504.209 709.481 441.977 694.421 376.883 666.222C350.641 654.854 325.206 642.025 301.447 626.003C295.364 621.901 277.976 610.366 276.657 603.569C297.745 618.719 322.098 628.562 346.601 636.747C428.867 664.229 511.633 667.039 596.705 653.16Q606.717 651.534 616.642 649.438Q626.566 647.343 636.381 644.782Q646.195 642.221 655.879 639.201Q665.562 636.18 675.092 632.707C680.623 630.714 686.953 628.846 692.132 626.087C691.267 635.463 691.468 642.657 694.155 651.73Z"/>
	<path fill="#71B590" d="M416.495 263.7C417.627 265.276 418.82 266.808 419.675 268.556C423.293 271.964 426.898 275.4 430.665 278.644C455.503 300.028 491.689 305.529 523.545 303.154C546.517 301.441 570.757 295.521 588.63 280.272C594.078 275.623 598.61 270.183 603.268 264.773L604.122 265.457C610.226 267.063 617.066 268.696 622.847 271.213C625.442 272.294 628.09 273.317 630.643 274.491C663.754 291.852 699.083 316.74 726.765 341.796C737.059 351.114 746.726 361.117 756.297 371.168C764.05 379.311 772.508 387.509 779.052 396.647C783.662 403.062 789.078 408.898 793.342 415.546C791.731 417.267 790.062 418.664 788.203 420.1C772.08 432.056 755.839 442.406 737.598 450.844C732.946 452.995 728.132 455.335 723.217 456.794C725.881 463.723 728.619 470.631 731.209 477.587C734.016 485.306 749.433 534.89 748.565 540.085L748.25 540.571C748.019 545.551 749.857 551.212 750.846 556.127C752.611 564.9 756.638 586.997 754.019 594.99C752.957 595.848 752.707 595.574 751.395 595.546C747.927 595.86 737.535 603.066 733.904 605.084L732.344 605.924C724.962 610.06 717.592 614.306 709.966 617.979C704.74 620.497 698.159 622.633 693.397 625.841L692.132 626.087C686.953 628.846 680.623 630.714 675.092 632.707Q665.562 636.18 655.879 639.201Q646.195 642.221 636.381 644.782Q626.566 647.343 616.642 649.438Q606.717 651.534 596.705 653.16C511.633 667.039 428.867 664.229 346.601 636.747C322.098 628.562 297.745 618.719 276.657 603.569C274.688 601.599 272.56 599.781 270.483 597.926C268.778 596.066 267.165 594.312 266.173 591.947C263.964 586.678 263.137 576.656 265.412 571.181C267.788 537.541 278.239 502.914 290.249 471.542L294.804 460.023C284.351 454.091 273.416 449.346 263.182 442.917C254.699 437.588 247.504 431.21 239.522 425.277L239.151 425.005L238.148 423.583Q235.195 420.535 232.161 417.566C236.142 410.778 240.659 404.344 245.121 397.868C249.196 391.4 254.326 385.417 259.062 379.418C286.633 344.49 320.005 315.39 357.05 290.925C367.323 284.14 380.849 278.587 390.241 271.783L390.959 271.252C394.345 269.401 399.015 268.589 402.744 267.531C407.293 266.176 411.847 264.679 416.495 263.7Z"/>
	<path fill="#3C877C" d="M779.052 396.647C783.662 403.062 789.078 408.898 793.342 415.546C791.731 417.267 790.062 418.664 788.203 420.1C772.08 432.056 755.839 442.406 737.598 450.844C732.946 452.995 728.132 455.335 723.217 456.794Q719.901 448.193 716.37 439.679C720.229 438.609 723.929 436.472 727.488 434.651C745.146 425.616 766.076 411.787 779.052 396.647Z"/>
	<path fill="#3C877C" d="M245.121 397.868C257.58 411.13 288.137 430.768 305.833 435.6C301.994 443.641 298.015 451.703 294.804 460.023C284.351 454.091 273.416 449.346 263.182 442.917C254.699 437.588 247.504 431.21 239.522 425.277L239.151 425.005L238.148 423.583Q235.195 420.535 232.161 417.566C236.142 410.778 240.659 404.344 245.121 397.868Z"/>
	<path fill="#010102" d="M745.99 537.294C738.525 503.193 726.792 470.463 712.437 438.689C706.312 425.133 699.978 411.764 692.391 398.948C680.984 379.679 668.005 361.95 653.547 344.891L653.179 345.565L653.106 344.326C653.828 344.296 654.429 345.122 654.952 345.604C680.277 368.919 702.423 408.509 716.37 439.679Q719.901 448.193 723.217 456.794C725.881 463.723 728.619 470.631 731.209 477.587C734.016 485.306 749.433 534.89 748.565 540.085L748.25 540.571C748.087 540.609 747.923 540.645 747.761 540.685C738.658 542.946 729.967 547.948 721.145 551.178Q690.213 562.493 658.181 570.156Q633.27 575.704 608.019 579.405Q582.768 583.107 557.313 584.943C466.679 590.626 354.664 578.093 271.217 540.989C269.799 546.745 268.76 552.501 267.82 558.351C267.142 562.57 266.791 567.142 265.412 571.181C267.788 537.541 278.239 502.914 290.249 471.542L294.804 460.023C298.015 451.703 301.994 443.641 305.833 435.6Q310.183 425.959 315.091 416.589Q319.999 407.22 325.448 398.155Q330.898 389.09 336.87 380.36Q342.842 371.63 349.316 363.266C354.465 356.6 359.624 349.876 366.134 344.467C363.41 349.404 358.245 353.998 354.716 358.521C348.544 366.429 342.788 374.871 337.436 383.35C307.736 430.397 285.283 484.029 271.631 537.928C279.375 540.684 286.924 543.948 294.643 546.772Q316.947 555.053 339.954 561.112C443.606 588.45 568.921 590.511 672.699 563.073C697.946 556.399 721.878 547.216 745.99 537.294Z"/>
	<path fill="#3C877C" d="M552.487 396.67C563.914 397.405 575.637 396.931 587.09 396.823Q613.622 396.491 640.157 396.526C640.695 407.729 640.447 419.038 640.473 430.258C640.495 439.883 640.846 449.641 640.444 459.254C631.872 464.727 610.237 477.419 600.647 478.482C592.303 479.406 559.796 464.186 552.77 458.664C551.649 451.653 552.317 443.677 552.305 436.565C552.282 423.277 552.099 409.951 552.487 396.67Z"/>
	<path fill="#0B5948" d="M552.77 458.664L553.01 455.96C554.2 455.421 554.868 455.585 556.064 456.026C558.512 456.928 560.858 458.429 563.27 459.485C570.657 462.719 592.262 472.321 599.732 472.061C603.184 471.941 607.013 470.31 610.205 469.071C614.535 467.39 636.962 455.599 639.675 456.308C639.968 457.288 640.235 458.252 640.444 459.254C631.872 464.727 610.237 477.419 600.647 478.482C592.303 479.406 559.796 464.186 552.77 458.664Z"/>
	<path fill="#3C877C" d="M416.495 263.7C417.627 265.276 418.82 266.808 419.675 268.556C423.293 271.964 426.898 275.4 430.665 278.644C455.503 300.028 491.689 305.529 523.545 303.154C546.517 301.441 570.757 295.521 588.63 280.272C594.078 275.623 598.61 270.183 603.268 264.773L604.122 265.457C610.226 267.063 617.066 268.696 622.847 271.213C621.186 280.658 613.888 292.835 608.454 300.682C590.212 327.026 562.902 345.771 531.144 351.384Q529.758 351.626 528.367 351.834Q526.976 352.041 525.58 352.215Q524.184 352.388 522.784 352.527Q521.384 352.666 519.981 352.771Q518.578 352.876 517.173 352.946Q515.768 353.016 514.362 353.052Q512.956 353.087 511.549 353.088Q510.143 353.089 508.736 353.056Q507.33 353.022 505.925 352.954Q504.52 352.886 503.117 352.783Q501.714 352.681 500.314 352.544Q498.914 352.406 497.518 352.235Q496.121 352.064 494.73 351.858Q493.338 351.652 491.952 351.412Q490.566 351.173 489.186 350.899Q487.807 350.625 486.434 350.317Q485.061 350.01 483.697 349.668Q482.332 349.327 480.976 348.952Q479.62 348.577 478.274 348.169Q476.928 347.762 475.592 347.321Q474.256 346.88 472.931 346.406Q471.607 345.932 470.294 345.426Q468.982 344.92 467.682 344.382Q466.382 343.844 465.096 343.274Q463.81 342.704 462.538 342.103Q461.267 341.502 460.01 340.869Q458.754 340.237 457.513 339.574Q456.273 338.91 455.049 338.217Q453.825 337.524 452.618 336.8Q451.412 336.077 450.223 335.324Q449.035 334.572 447.865 333.79Q446.696 333.008 445.546 332.198C423.2 316.591 407.551 294.492 402.744 267.531C407.293 266.176 411.847 264.679 416.495 263.7Z"/>
	<path fill="#E46A49" d="M603.268 264.773L604.122 265.457C595.368 290.253 580.04 311.641 555.83 323.259C531.506 334.931 503.505 337.532 477.895 328.438C453.331 319.715 434.82 301.952 423.777 278.521C422.255 275.293 420.798 271.947 419.675 268.556C423.293 271.964 426.898 275.4 430.665 278.644C455.503 300.028 491.689 305.529 523.545 303.154C546.517 301.441 570.757 295.521 588.63 280.272C594.078 275.623 598.61 270.183 603.268 264.773Z"/>
	<path fill="#3C877C" d="M271.217 540.989C354.664 578.093 466.679 590.626 557.313 584.943Q582.768 583.107 608.019 579.405Q633.27 575.704 658.181 570.156Q690.213 562.493 721.145 551.178C729.967 547.948 738.658 542.946 747.761 540.685C747.923 540.645 748.087 540.609 748.25 540.571C748.019 545.551 749.857 551.212 750.846 556.127C752.611 564.9 756.638 586.997 754.019 594.99C752.957 595.848 752.707 595.574 751.395 595.546C747.927 595.86 737.535 603.066 733.904 605.084L732.344 605.924C724.962 610.06 717.592 614.306 709.966 617.979C704.74 620.497 698.159 622.633 693.397 625.841L692.132 626.087C686.953 628.846 680.623 630.714 675.092 632.707Q665.562 636.18 655.879 639.201Q646.195 642.221 636.381 644.782Q626.566 647.343 616.642 649.438Q606.717 651.534 596.705 653.16C511.633 667.039 428.867 664.229 346.601 636.747C322.098 628.562 297.745 618.719 276.657 603.569C274.688 601.599 272.56 599.781 270.483 597.926C268.778 596.066 267.165 594.312 266.173 591.947C263.964 586.678 263.137 576.656 265.412 571.181C266.791 567.142 267.142 562.57 267.82 558.351C268.76 552.501 269.799 546.745 271.217 540.989Z"/>
</svg>
