<?xml version="1.0" encoding="utf-8" ?>
<svg xmlns="http://www.w3.org/2000/svg" xmlns:xlink="http://www.w3.org/1999/xlink" width="1024" height="1024">
	<path fill="#FEFEFE" d="M0 0L1024 0L1024 1024L0 1024L0 0Z"/>
	<path fill="#F7B33D" d="M143.458 514.595C130.199 513.682 116.214 514.438 102.892 514.571C97.8674 514.621 92.13 515.272 87.1893 514.36C85.8802 514.119 85.2147 514.02 84.4034 512.902L84.8722 512.25L85.1598 512.887L85.1574 512.055C88.5101 510.551 136.674 511.39 143.871 512.386L143.458 514.595Z"/>
	<path fill="#F7B33D" d="M879.519 513.291C880.222 512.292 880.294 511.91 881.545 511.651C887.396 510.437 895.181 511.562 901.257 511.575C914.165 511.602 927.165 511.218 940.06 511.492C941.515 511.523 942.971 511.581 944.29 512.222L944.518 512.72C943.757 513.766 943.224 514.34 941.868 514.518C937.866 515.044 933.146 514.478 929.077 514.476L896.814 514.481C891.368 514.464 885.401 513.95 880.008 514.586L879.519 513.291Z"/>
	<path fill="#17446E" d="M601.202 882.54C605.575 880.281 604.056 877.842 607.026 874.816C600.865 895.912 595.563 917.29 588.253 938.032C598.093 941.159 607.961 947.32 612.908 956.733C614.85 960.429 615.19 963.149 615.037 967.236L692.907 967.406C705.008 967.415 717.497 966.643 729.538 967.334C730.993 967.417 732.107 967.604 733.315 968.466L733.325 969.381C732.099 970.365 730.873 970.655 729.326 970.763C725.38 971.039 721.2 970.739 717.231 970.726L692.45 970.695L610.248 970.604C610.306 969.326 610.435 968.72 609.82 967.539C608.631 967.226 607.459 966.879 606.282 966.52C607.745 966.537 609.123 966.5 610.575 966.314C611.625 964.918 611.356 963.685 611.424 961.967C610.633 960.093 609.716 958.215 608.568 956.53C602.652 947.84 593.597 942.515 583.372 940.623C584.664 939.192 585.226 938.587 585.42 936.601C586.798 929.868 589.546 922.943 591.529 916.343C594.901 905.123 597.956 893.799 601.202 882.54Z"/>
	<path fill="#17446E" d="M468.942 74.6545C471.134 65.1282 479.722 57.0345 487.796 52.0058C498.137 45.5649 511.319 44.2321 523.034 47.0868C534.538 49.89 546.199 57.2012 552.366 67.5092C553.775 69.8652 554.909 72.3753 555.915 74.9258C569.035 82.5432 578.571 94.1054 582.592 108.903C585.009 117.798 584.654 126.106 582.914 135.088C582.791 135.143 582.673 135.211 582.545 135.254C579.799 136.161 576.583 134.611 574.215 133.368C569.147 121.191 560.109 109.725 550.315 101.009C537.884 109.272 527.063 110.338 512.47 110.468C495.892 110.667 487.097 110.696 473.547 100.218C462.604 111 451.873 125.487 446.793 140.069C445.703 140.337 444.796 140.446 443.674 140.442C442.201 139.302 442.331 137.837 441.684 136.137L441.364 135.312C437.545 122.49 438.795 110.521 445.111 98.7083C450.705 88.2473 458.402 80.0768 468.942 74.6545Z"/>
	<defs>
		<linearGradient id="gradient_0" gradientUnits="userSpaceOnUse" x1="249.09775" y1="200.18562" x2="445.2681" y2="859.6994">
			<stop offset="0" stop-color="#FBB510"/>
			<stop offset="1" stop-color="#FDAD64"/>
		</linearGradient>
	</defs>
	<path fill="url(#gradient_0)" d="M160.52 403.889Q164.695 390.394 169.846 377.241Q174.997 364.087 181.096 351.346Q182.832 347.884 184.635 344.456Q186.437 341.028 188.305 337.635Q190.173 334.242 192.106 330.886Q194.039 327.53 196.036 324.212Q198.034 320.893 200.094 317.614Q202.155 314.335 204.278 311.096Q206.402 307.856 208.587 304.659Q210.772 301.461 213.019 298.306Q215.265 295.151 217.572 292.04Q219.878 288.929 222.244 285.862Q224.61 282.796 227.035 279.776Q229.46 276.756 231.942 273.783Q234.424 270.81 236.963 267.885Q239.502 264.96 242.097 262.085Q244.692 259.21 247.341 256.385Q249.991 253.56 252.694 250.787Q255.398 248.013 258.154 245.292Q260.91 242.571 263.719 239.904Q266.527 237.237 269.386 234.624Q272.245 232.011 275.153 229.454Q278.062 226.896 281.019 224.395Q283.976 221.894 286.981 219.451Q289.986 217.007 293.038 214.622Q296.089 212.237 299.185 209.91Q302.282 207.584 305.423 205.318Q308.564 203.052 311.748 200.846Q314.931 198.641 318.157 196.497Q321.383 194.354 324.649 192.272Q327.915 190.191 331.221 188.173Q334.527 186.155 337.871 184.201Q341.215 182.247 344.595 180.357Q347.976 178.468 351.393 176.644C374.06 164.798 397.503 156.233 421.651 147.993C420.543 153.149 420.471 157.957 423.578 162.518C426.305 166.521 430.857 169.087 435.584 169.852Q436.751 170.044 437.929 170.153C441.084 191.855 449.838 207.949 467.511 221.082C468.584 221.879 470.821 223.065 471.223 224.282C470.068 225.02 469.166 225.174 467.844 225.423L471.346 225.748L471.629 227.25C473.521 227.043 475.217 226.834 477.124 227.132C469.568 228.777 461.263 231.326 453.618 232.09C450.538 233.121 447.348 234.047 444.348 235.283L440.339 236.291C424.123 242.111 410.112 249.374 395.479 258.363C393.937 259.114 392.128 259.759 390.872 260.921C394.118 261.486 395.843 266.642 398.145 268.61C400.168 269.522 400.718 270.322 401.769 272.248L402.495 272.42L403.854 271.58C405.617 274.871 408.005 278.725 408.795 282.402C409.146 285.795 408.716 288.003 408.29 291.28C410.053 297.859 410.437 304.353 411.652 310.971C409.949 324.786 407.972 337.086 399.545 348.668C396.792 352.452 393.43 355.79 390.757 359.616L390.994 360.576C388.653 363.167 385.334 366.34 384.058 369.592L384.305 369.995C385.618 369.167 387.143 367.336 388.577 367.233C389.304 371.251 389.437 391.729 388.149 395.694C387.712 397.042 387.885 396.152 387.902 397.419C387.949 400.835 376.476 423.628 374.424 428.971C364.871 453.856 358.245 477.684 355.457 504.256C353.827 519.791 354.141 537.38 354.765 552.99C354.962 557.928 357.651 569.655 355.976 573.586C357.238 593.602 362.192 616.7 365.418 636.785Q379.293 722.127 399.424 806.213C404.587 827.844 410.754 849.201 416.031 870.791C405.637 868.765 395.436 864.809 385.556 861.068Q381.027 859.356 376.545 857.526Q372.063 855.697 367.63 853.75Q363.197 851.803 358.817 849.741Q354.436 847.678 350.112 845.502Q345.787 843.326 341.521 841.037Q337.255 838.747 333.05 836.347Q328.846 833.947 324.705 831.438Q320.565 828.928 316.492 826.311Q312.419 823.694 308.416 820.971Q304.413 818.248 300.482 815.42Q296.552 812.593 292.697 809.664Q288.842 806.735 285.066 803.706Q281.289 800.677 277.593 797.549Q273.897 794.422 270.284 791.199Q266.672 787.976 263.145 784.66Q259.618 781.343 256.179 777.935C186.869 709.416 143.939 612.455 143.458 514.595L143.871 512.386C150.598 512.899 212.139 514.038 214.122 513.044C214.421 512.894 214.635 512.614 214.892 512.4C215.005 510.878 214.993 509.773 214.677 508.283C214.393 508.051 214.174 507.698 213.824 507.585C211.284 506.769 150.505 507.187 143.417 507.268C143.611 473.635 149.551 441.335 158.858 409.107C166.621 409.458 245.349 409.683 247.324 408.465C247.517 406.88 247.493 405.88 247.142 404.324C244.101 402.9 170.793 403.965 160.52 403.889Z"/>
	<path fill="#542155" d="M295.158 649.622C297.004 647.717 295.946 645.98 296.025 643.658C296.068 642.409 296.28 642.398 297.16 641.563C299.356 649.655 301.106 657.392 306.732 663.922C306.903 665.804 308.835 666.963 309.421 668.837C308.104 668.315 306.803 667.753 305.597 667.002C299.875 663.441 296.764 655.903 295.158 649.622Z"/>
	<path fill="#4A225D" d="M291.62 610.86L292.624 615.585C292.348 624.468 294.925 633.055 297.16 641.563C296.28 642.398 296.068 642.409 296.025 643.658C295.946 645.98 297.004 647.717 295.158 649.622C291.184 638.073 290.185 625.939 288.33 613.953C290.23 615.913 289.393 618.426 290.885 620.391L290.881 619.448L292.219 619.475L291.048 619.071C291.163 617.947 291.279 616.844 291.191 615.713C291.063 614.081 291.078 612.938 291.49 611.336C291.531 611.177 291.576 611.018 291.62 610.86Z"/>
	<path fill="#3B2065" d="M438.494 233.267C447.857 229.674 458.099 227.664 467.844 225.423L471.346 225.748L471.629 227.25C473.521 227.043 475.217 226.834 477.124 227.132C469.568 228.777 461.263 231.326 453.618 232.09C450.538 233.121 447.348 234.047 444.348 235.283L440.339 236.291C424.123 242.111 410.112 249.374 395.479 258.363C393.937 259.114 392.128 259.759 390.872 260.921C364.023 281.699 345.438 301.086 327.833 330.27C324.932 335.079 321.205 340.017 319.127 345.211Q315.415 351.694 312.545 358.59C308.213 368.533 303.839 378.484 300.269 388.733C282.232 440.528 277.883 495.559 282.38 549.981C284.042 570.103 286.534 591.291 291.62 610.86C291.576 611.018 291.531 611.177 291.49 611.336C291.078 612.938 291.063 614.081 291.191 615.713C291.279 616.844 291.163 617.947 291.048 619.071L292.219 619.475L290.881 619.448L290.885 620.391C289.393 618.426 290.23 615.913 288.33 613.953C288.271 613.819 288.2 613.69 288.153 613.551C283.995 601.196 282.145 582.521 280.479 569.316C270.922 493.548 278.489 414.336 314.048 345.737C340.492 294.72 382.735 250.974 438.494 233.267Z"/>
	<path fill="#2F2F71" d="M438.494 233.267C447.857 229.674 458.099 227.664 467.844 225.423L471.346 225.748L471.629 227.25C473.521 227.043 475.217 226.834 477.124 227.132C469.568 228.777 461.263 231.326 453.618 232.09C450.538 233.121 447.348 234.047 444.348 235.283L440.339 236.291L439.692 235.948L440.117 235.521C443.822 234.466 454.227 230.069 457.298 230.366C458.357 230.468 459.195 230.41 460.256 230.324L460.628 229.647L460.599 230.14L460.202 229.267C454.018 228.021 444.966 232.863 438.795 234.332L438.494 233.267Z"/>
	<path fill="#3B2065" d="M375.366 379.275C381.147 373.297 384.416 365.321 390.757 359.616L390.994 360.576C388.653 363.167 385.334 366.34 384.058 369.592L384.305 369.995C385.618 369.167 387.143 367.336 388.577 367.233C389.304 371.251 389.437 391.729 388.149 395.694C387.712 397.042 387.885 396.152 387.902 397.419C387.949 400.835 376.476 423.628 374.424 428.971C364.871 453.856 358.245 477.684 355.457 504.256C353.827 519.791 354.141 537.38 354.765 552.99C354.962 557.928 357.651 569.655 355.976 573.586C353.925 562.61 353.47 550.904 353.299 539.754C352.785 506.182 356.965 473.493 368.243 441.751Q372.283 430.374 377.261 419.375C380.464 412.272 385.907 403.856 387.182 396.22C388.591 387.778 387.531 377.143 387.455 368.478C337.111 434.549 325.52 531.426 336.598 611.74C337.446 617.889 342.407 633.577 338.751 638.607C336.014 642.374 331.049 639.127 329.907 643.845C332.011 648.158 332.733 655.807 333.237 660.619C334.099 664.266 334.734 668.16 332.637 671.521Q332.441 671.833 332.215 672.125Q331.989 672.417 331.736 672.685Q331.483 672.953 331.205 673.196Q330.927 673.438 330.627 673.653Q330.327 673.867 330.007 674.051Q329.687 674.235 329.351 674.388Q329.015 674.54 328.666 674.659Q328.317 674.778 327.958 674.862C325.508 675.422 322.562 674.624 320.519 673.229C320.274 673.062 320.035 672.885 319.793 672.713L318.204 672.081C314.494 672.159 312.193 671.273 309.421 668.837C308.835 666.963 306.903 665.804 306.732 663.922C301.106 657.392 299.356 649.655 297.16 641.563C294.925 633.055 292.348 624.468 292.624 615.585C306.092 615.608 319.597 615.337 333.059 615.589C331.091 598.02 329.229 580.311 328.859 562.625C327.658 505.213 338.288 444.74 365.657 393.85C368.787 388.871 371.715 383.907 375.366 379.275Z"/>
	<path fill="#12CDC6" d="M292.624 615.585C306.092 615.608 319.597 615.337 333.059 615.589C334.331 620.345 338.358 631.481 335.725 635.951C335.146 636.933 333.988 637.73 332.95 638.117C331.841 637.66 332.138 638.025 331.713 637.077C330.443 634.245 331.741 630.557 328.679 628.837L327.465 629.09C325.862 632.442 326.634 639.207 326.995 642.914C327.728 650.857 329.252 658.671 330.204 666.581C330.1 668.193 330.095 669.632 328.812 670.817C327.852 671.704 326.804 671.931 325.531 671.789C324.297 671.651 323.192 670.994 322.269 670.212C317.712 661.355 320.169 650.228 316.626 641.248C315.517 640.439 315.034 640.671 313.721 640.684C310.938 645.264 317.434 662.231 316.67 668.624L315.709 669.149C316.025 670.251 316.276 671.153 317.362 671.741C317.629 671.885 317.924 671.968 318.204 672.081C314.494 672.159 312.193 671.273 309.421 668.837C308.835 666.963 306.903 665.804 306.732 663.922C301.106 657.392 299.356 649.655 297.16 641.563C294.925 633.055 292.348 624.468 292.624 615.585Z"/>
	<defs>
		<linearGradient id="gradient_1" gradientUnits="userSpaceOnUse" x1="304.26157" y1="656.11896" x2="315.19724" y2="655.89227">
			<stop offset="0" stop-color="#302A4B"/>
			<stop offset="1" stop-color="#4B1762"/>
		</linearGradient>
	</defs>
	<path fill="url(#gradient_1)" d="M306.732 663.922C306.772 663.677 306.818 663.432 306.851 663.186C307.626 657.35 300.298 645.366 304.662 640.594C305.344 640.612 305.939 640.386 306.385 641C309.041 644.653 306.568 662.185 315.709 669.149C316.025 670.251 316.276 671.153 317.362 671.741C317.629 671.885 317.924 671.968 318.204 672.081C314.494 672.159 312.193 671.273 309.421 668.837C308.835 666.963 306.903 665.804 306.732 663.922Z"/>
	<path fill="#12CDC6" d="M390.872 260.921C394.118 261.486 395.843 266.642 398.145 268.61C400.168 269.522 400.718 270.322 401.769 272.248L402.495 272.42L403.854 271.58C405.617 274.871 408.005 278.725 408.795 282.402C409.146 285.795 408.716 288.003 408.29 291.28C410.053 297.859 410.437 304.353 411.652 310.971C409.949 324.786 407.972 337.086 399.545 348.668C396.792 352.452 393.43 355.79 390.757 359.616C384.416 365.321 381.147 373.297 375.366 379.275C371.715 383.907 368.787 388.871 365.657 393.85C358.91 391.2 318.111 364.143 312.545 358.59Q315.415 351.693 319.127 345.211C321.205 340.017 324.932 335.079 327.833 330.27C345.438 301.086 364.023 281.699 390.872 260.921Z"/>
	<path fill="#2F2F71" d="M398.145 268.61C400.168 269.522 400.718 270.322 401.769 272.248L402.495 272.42L403.854 271.58C405.617 274.871 408.005 278.725 408.795 282.402C409.146 285.795 408.716 288.003 408.29 291.28C405.858 283.138 402.391 275.929 398.145 268.61Z"/>
	<path fill="#FEFEFE" d="M319.127 345.211C337.84 354.698 354.976 371.13 373.932 378.686C374.412 378.877 374.888 379.08 375.366 379.275C371.715 383.907 368.787 388.871 365.657 393.85C358.91 391.2 318.111 364.143 312.545 358.59Q315.415 351.693 319.127 345.211Z"/>
	<path fill="#FDE1A6" d="M312.545 358.59C318.111 364.143 358.91 391.2 365.657 393.85C338.288 444.74 327.658 505.213 328.859 562.625C329.229 580.311 331.091 598.02 333.059 615.589C319.597 615.337 306.092 615.608 292.624 615.585L291.62 610.86C286.534 591.291 284.042 570.103 282.38 549.981C277.883 495.559 282.232 440.528 300.269 388.733C303.839 378.484 308.213 368.533 312.545 358.59Z"/>
	<path fill="#12CDC6" d="M477.124 227.132C487.874 231.254 497.735 234.601 509.352 235.051C510.778 235.289 512.097 235.203 513.162 236.216C514.391 249.661 513.538 265.403 513.518 279.063C513.389 281.863 513.437 284.806 513.09 287.579L512.966 287.83C513.016 311.169 512.31 334.616 513.018 357.936L513.114 399.24C513.134 404.274 512.431 410.662 513.369 415.549L513.075 415.639L513.125 520.494C513.171 538.519 512.325 557.039 513.724 575.009C526.792 575.205 540.315 573.904 553.24 572.091C594.882 566.251 629.344 553.118 665.673 532.225L666.183 533.183C667.659 536.152 666.379 544.885 666.576 548.712C666.788 552.826 667.617 556.886 667.781 560.996C667.955 565.344 667.418 569.915 668.051 574.201C667.688 587.681 664.544 609.679 661.549 622.817Q653.977 668.212 644.574 713.263C643.355 719.369 640.641 737.108 638.683 741.924C638.331 744.525 638.083 747.911 637.061 750.32Q634.828 761.876 632.249 773.359L631.411 777.492C629.011 788.235 626.921 799.165 623.982 809.77C621.995 823.403 616.54 836.656 613.789 850.148L608.221 870.904L607.026 874.816C604.056 877.842 605.575 880.281 601.202 882.54C597.956 893.799 594.901 905.123 591.529 916.343C589.546 922.943 586.798 929.868 585.42 936.601C585.226 938.587 584.664 939.192 583.372 940.623C593.597 942.515 602.652 947.84 608.568 956.53C609.716 958.215 610.633 960.093 611.424 961.967C611.356 963.685 611.625 964.918 610.575 966.314C609.123 966.5 607.745 966.537 606.282 966.52C607.459 966.879 608.631 967.226 609.82 967.539C610.435 968.72 610.306 969.326 610.248 970.604L383.326 970.692C354.69 970.66 325.521 971.406 296.952 970.617C295.03 970.564 293.222 970.43 291.484 969.561C291.335 968.435 291.399 968.679 292.013 967.843C295.469 966.294 399.331 967.454 412.04 967.523C411.469 962.956 411.265 959.591 413.335 955.265C417.704 946.133 426.932 941.012 435.975 937.596C428.868 915.456 423.148 892.918 416.031 870.791C410.754 849.201 404.587 827.844 399.424 806.213Q379.293 722.127 365.418 636.785C362.192 616.7 357.238 593.602 355.976 573.586C357.651 569.655 354.962 557.928 354.765 552.99C354.141 537.38 353.827 519.791 355.457 504.256C358.245 477.684 364.871 453.856 374.424 428.971C376.476 423.628 387.949 400.835 387.902 397.419C387.885 396.152 387.712 397.042 388.149 395.694C389.437 391.729 389.304 371.251 388.577 367.233C387.143 367.336 385.618 369.167 384.305 369.995L384.058 369.592C385.334 366.34 388.653 363.167 390.994 360.576L390.757 359.616C393.43 355.79 396.792 352.452 399.545 348.668C407.972 337.086 409.949 324.786 411.652 310.971C410.437 304.353 410.053 297.859 408.29 291.28C408.716 288.003 409.146 285.795 408.795 282.402C408.005 278.725 405.617 274.871 403.854 271.58L402.495 272.42L401.769 272.248C400.718 270.322 400.168 269.522 398.145 268.61C395.843 266.642 394.118 261.486 390.872 260.921C392.128 259.759 393.937 259.114 395.479 258.363C410.112 249.374 424.123 242.111 440.339 236.291L444.348 235.283C447.348 234.047 450.538 233.121 453.618 232.09C461.263 231.326 469.568 228.777 477.124 227.132Z"/>
	<path fill="#2F2F71" d="M411.652 310.971C413.497 314.718 412.316 319.915 414.138 324.032C410.198 341.701 402.906 351.831 390.849 364.919C391.234 375.883 392.736 388.713 390.229 399.41C388.152 408.268 382.655 417.017 379.284 425.529C367.323 455.728 360.116 480.335 357.954 512.959C357.617 518.052 356.664 524.112 357.476 529.145C356.008 534.099 357.246 541.87 357.549 547.04C359.171 574.748 363.674 602.252 368.329 629.583C372.381 653.369 376.506 677 381.19 700.673C389.687 743.613 397.834 786.36 408.677 828.804C415.6 855.907 423.67 882.619 431.263 909.535C433.831 918.637 437.417 927.893 439.347 937.114Q462.783 936.936 486.219 937.064C486.15 923.461 485.422 909.399 486.425 895.846C485.81 888.101 486.466 879.736 486.479 871.941L486.513 821.33L486.439 664.468C483.112 663.91 472.682 662.975 470.79 660.34C470.202 659.521 470.371 659.824 470.519 658.733C473.569 657.009 480.659 659.97 484.112 660.469C493.913 661.886 504.206 662.591 514.103 662.479C520.017 662.016 526.004 661.787 531.888 661.074C537.797 660.359 544.337 658.703 550.231 658.921C551.117 659.711 550.914 659.585 551.047 660.663C549.152 663.062 539.929 663.505 536.791 663.945C536.292 683.401 536.715 702.938 536.723 722.403L536.555 816.397L536.58 853.868C536.596 860.312 537 866.986 536.564 873.394C535.386 886.91 535.736 901.023 535.73 914.609C535.727 922.983 535.26 931.674 535.8 940.014C544.095 939.773 575.304 938.671 581.298 940.413L583.372 940.623C593.597 942.515 602.652 947.84 608.568 956.53C609.716 958.215 610.633 960.093 611.424 961.967C611.356 963.685 611.625 964.918 610.575 966.314C609.123 966.5 607.745 966.537 606.282 966.52C607.459 966.879 608.631 967.226 609.82 967.539C610.435 968.72 610.306 969.326 610.248 970.604L383.326 970.692C354.69 970.66 325.521 971.406 296.952 970.617C295.03 970.564 293.222 970.43 291.484 969.561C291.335 968.435 291.399 968.679 292.013 967.843C295.469 966.294 399.331 967.454 412.04 967.523C411.469 962.956 411.265 959.591 413.335 955.265C417.704 946.133 426.932 941.012 435.975 937.596C428.868 915.456 423.148 892.918 416.031 870.791C410.754 849.201 404.587 827.844 399.424 806.213Q379.293 722.127 365.418 636.785C362.192 616.7 357.238 593.602 355.976 573.586C357.651 569.655 354.962 557.928 354.765 552.99C354.141 537.38 353.827 519.791 355.457 504.256C358.245 477.684 364.871 453.856 374.424 428.971C376.476 423.628 387.949 400.835 387.902 397.419C387.885 396.152 387.712 397.042 388.149 395.694C389.437 391.729 389.304 371.251 388.577 367.233C387.143 367.336 385.618 369.167 384.305 369.995L384.058 369.592C385.334 366.34 388.653 363.167 390.994 360.576L390.757 359.616C393.43 355.79 396.792 352.452 399.545 348.668C407.972 337.086 409.949 324.786 411.652 310.971Z"/>
	<path fill="#17446E" d="M486.219 937.064C486.15 923.461 485.422 909.399 486.425 895.846C487.03 901.933 487.709 936.105 485.459 939.81C481.6 940.338 442.305 940.206 440.197 939.27C439.746 938.521 439.515 937.973 439.347 937.114Q462.783 936.936 486.219 937.064Z"/>
	<path fill="#F1B081" d="M415.246 961.953C438.796 962.096 462.466 962.54 486.008 962.164C486.026 963.509 486.203 964.71 485.38 965.858C478.574 966.934 468.086 966.025 460.742 966.006C445.984 965.967 430.933 966.592 416.218 965.799C415.261 964.607 415.406 963.454 415.246 961.953Z"/>
	<path fill="#DF3D3E" d="M415.246 961.953C417.198 954.377 422.236 948.67 428.904 944.772Q430.164 944.026 431.487 943.4Q432.811 942.774 434.186 942.272Q435.561 941.77 436.977 941.397Q438.393 941.024 439.837 940.783C445.58 939.829 451.856 940.257 457.678 940.276Q471.854 940.26 486.026 940.58C486.017 947.753 485.78 955 486.008 962.164C462.466 962.54 438.796 962.096 415.246 961.953Z"/>
	<path fill="#DF3D3E" d="M581.298 940.413L583.372 940.623C593.597 942.515 602.652 947.84 608.568 956.53C609.716 958.215 610.633 960.093 611.424 961.967C611.356 963.685 611.625 964.918 610.575 966.314C609.123 966.5 607.745 966.537 606.282 966.52C590.505 965.767 574.471 966.115 558.669 966.154C551.924 966.171 544.781 966.707 538.083 966.005C537.286 964.802 537.492 963.486 537.422 962.064Q537.031 951.294 536.995 940.516C551.737 940.152 566.546 940.489 581.298 940.413Z"/>
	<path fill="#F1B081" d="M537.422 962.064C562.049 961.926 586.826 962.788 611.424 961.967C611.356 963.685 611.625 964.918 610.575 966.314C609.123 966.5 607.745 966.537 606.282 966.52C590.505 965.767 574.471 966.115 558.669 966.154C551.924 966.171 544.781 966.707 538.083 966.005C537.286 964.802 537.492 963.486 537.422 962.064Z"/>
	<path fill="#FEFEFE" d="M490.105 885.841C504.432 885.367 518.848 885.638 533.177 885.969Q532.835 926.36 533.1 966.748C518.93 967.306 504.624 966.936 490.437 966.941Q489.891 926.393 490.105 885.841Z"/>
	<path fill="#F7B33D" d="M490.287 664.904C496.971 665.294 503.716 665.847 510.414 665.771C517.961 665.687 525.371 664.871 532.886 664.412C533.164 738.226 534.199 812.167 533.177 885.969C518.848 885.638 504.432 885.367 490.105 885.841C490.014 812.211 489.439 738.528 490.287 664.904Z"/>
	<path fill="#13B4A2" d="M665.673 532.225L666.183 533.183C667.659 536.152 666.379 544.885 666.576 548.712C666.788 552.826 667.617 556.886 667.781 560.996C667.955 565.344 667.418 569.915 668.051 574.201C667.688 587.681 664.544 609.679 661.549 622.817Q653.977 668.212 644.574 713.263C643.355 719.369 640.641 737.108 638.683 741.924C638.331 744.525 638.083 747.911 637.061 750.32Q634.828 761.876 632.249 773.359L631.411 777.492C629.011 788.235 626.921 799.165 623.982 809.77C621.995 823.403 616.54 836.656 613.789 850.148L608.221 870.904L607.026 874.816C604.056 877.842 605.575 880.281 601.202 882.54C597.956 893.799 594.901 905.123 591.529 916.343C589.546 922.943 586.798 929.868 585.42 936.601C585.226 938.587 584.664 939.192 583.372 940.623L581.298 940.413C575.304 938.671 544.095 939.773 535.8 940.014C535.26 931.674 535.727 922.983 535.73 914.609C535.736 901.023 535.386 886.91 536.564 873.394C537 866.986 536.596 860.312 536.58 853.868L536.555 816.397L536.723 722.403C536.715 702.938 536.292 683.401 536.791 663.945C539.929 663.505 549.152 663.062 551.047 660.663C550.914 659.585 551.117 659.711 550.231 658.921C544.337 658.703 537.797 660.359 531.888 661.074C526.004 661.787 520.017 662.016 514.103 662.479C513.895 642.793 514.088 623.084 514.078 603.395C514.073 594.156 514.745 584.173 513.724 575.009C526.792 575.205 540.315 573.904 553.24 572.091C594.882 566.251 629.344 553.118 665.673 532.225Z"/>
	<path fill="#17446E" d="M536.564 873.394C537.115 880.961 536.863 888.705 536.887 896.294L536.957 937.029C543.316 937.045 582.781 937.904 585.42 936.601C585.226 938.587 584.664 939.192 583.372 940.623L581.298 940.413C575.304 938.671 544.095 939.773 535.8 940.014C535.26 931.674 535.727 922.983 535.73 914.609C535.736 901.023 535.386 886.91 536.564 873.394Z"/>
	<path fill="#3B2065" d="M633.303 751.059C635.332 741.877 636.64 732.526 638.465 723.297C639.427 727.876 637.61 731.852 637.426 736.369C637.352 738.176 638.112 739.765 638.271 741.541L638.683 741.924C638.331 744.525 638.083 747.911 637.061 750.32Q634.828 761.876 632.249 773.359L631.411 777.492C629.011 788.235 626.921 799.165 623.982 809.77C621.995 823.403 616.54 836.656 613.789 850.148L608.221 870.904L607.026 874.816C604.056 877.842 605.575 880.281 601.202 882.54C606.169 869.75 608.87 855.336 612.316 842.012C615.512 829.636 618.796 817.327 621.701 804.874C623.509 797.018 624.966 788.841 627.329 781.146C627.887 777.208 628.782 773.349 629.648 769.47L633.303 751.059Z"/>
	<path fill="#2F2F71" d="M666.183 533.183C667.659 536.152 666.379 544.885 666.576 548.712C666.788 552.826 667.617 556.886 667.781 560.996C667.955 565.344 667.418 569.915 668.051 574.201C667.688 587.681 664.544 609.679 661.549 622.817Q653.977 668.212 644.574 713.263C643.355 719.369 640.641 737.108 638.683 741.924L638.271 741.541C638.112 739.765 637.352 738.176 637.426 736.369C637.61 731.852 639.427 727.876 638.465 723.297C638.987 717.875 640.605 712.164 641.719 706.825L648.543 673.87C651.695 658.26 653.481 642.029 657.256 626.601C658.998 611.044 662.053 595.595 663.697 579.989C665.342 564.37 665.483 548.848 666.183 533.183Z"/>
	<path fill="#EF5D4F" d="M477.124 227.132C487.874 231.254 497.735 234.601 509.352 235.051C510.778 235.289 512.097 235.203 513.162 236.216C514.391 249.661 513.538 265.403 513.518 279.063C513.389 281.863 513.437 284.806 513.09 287.579L512.966 287.83C513.016 311.169 512.31 334.616 513.018 357.936L513.114 399.24C513.134 404.274 512.431 410.662 513.369 415.549L513.075 415.639L513.125 520.494C513.171 538.519 512.325 557.039 513.724 575.009Q509.305 575.043 504.888 574.936Q500.471 574.828 496.059 574.581Q491.647 574.333 487.245 573.945Q482.844 573.557 478.457 573.029Q474.07 572.5 469.702 571.833Q465.334 571.165 460.989 570.359Q456.645 569.553 452.328 568.608Q448.011 567.664 443.727 566.582Q439.443 565.501 435.195 564.284Q430.947 563.067 426.74 561.715Q422.533 560.363 418.372 558.877Q414.21 557.392 410.098 555.775Q405.986 554.158 401.927 552.411Q397.869 550.664 393.868 548.788Q389.867 546.913 385.928 544.911Q381.988 542.909 378.115 540.782C371.243 537.084 363.89 533.584 357.476 529.145C356.664 524.112 357.617 518.052 357.954 512.959C360.116 480.335 367.323 455.728 379.284 425.529C382.655 417.017 388.152 408.268 390.229 399.41C392.736 388.713 391.234 375.883 390.849 364.919C402.906 351.831 410.198 341.701 414.138 324.032C412.316 319.915 413.497 314.718 411.652 310.971C410.437 304.353 410.053 297.859 408.29 291.28C408.716 288.003 409.146 285.795 408.795 282.402C408.005 278.725 405.617 274.871 403.854 271.58L402.495 272.42L401.769 272.248C400.718 270.322 400.168 269.522 398.145 268.61C395.843 266.642 394.118 261.486 390.872 260.921C392.128 259.759 393.937 259.114 395.479 258.363C410.112 249.374 424.123 242.111 440.339 236.291L444.348 235.283C447.348 234.047 450.538 233.121 453.618 232.09C461.263 231.326 469.568 228.777 477.124 227.132Z"/>
	<path fill="#3B2065" d="M390.872 260.921C392.128 259.759 393.937 259.114 395.479 258.363C397.507 263.1 401.47 266.94 403.854 271.58L402.495 272.42L401.769 272.248C400.718 270.322 400.168 269.522 398.145 268.61C395.843 266.642 394.118 261.486 390.872 260.921Z"/>
	<path fill="#3B2065" d="M408.795 282.402C414.836 294.939 416.404 310.375 414.138 324.032C412.316 319.915 413.497 314.718 411.652 310.971C410.437 304.353 410.053 297.859 408.29 291.28C408.716 288.003 409.146 285.795 408.795 282.402Z"/>
	<path fill="#FEFEFE" d="M453.618 232.09C459.571 250.846 466.152 262.504 484.184 271.856C493.88 276.884 502.771 278.255 513.518 279.063C513.389 281.863 513.437 284.806 513.09 287.579L512.966 287.83C501.876 287.606 492.182 285.68 482.088 280.916C460.967 270.944 451.871 256.393 444.348 235.283C447.348 234.047 450.538 233.121 453.618 232.09Z"/>
	<path fill="#DF3D3E" d="M513.075 415.639L510.995 415.523C504.581 415.195 498.848 413.552 493.838 409.352C487.9 404.376 484.071 396.586 483.386 388.907Q483.318 388.194 483.286 387.478Q483.253 386.762 483.257 386.046Q483.261 385.33 483.301 384.614Q483.341 383.899 483.417 383.187Q483.493 382.474 483.605 381.767Q483.717 381.059 483.864 380.358Q484.011 379.657 484.194 378.964Q484.376 378.271 484.593 377.588Q484.81 376.906 485.062 376.235Q485.313 375.564 485.597 374.906Q485.882 374.249 486.2 373.607Q486.517 372.964 486.867 372.339Q487.216 371.713 487.596 371.106Q487.977 370.499 488.388 369.912Q488.798 369.325 489.238 368.759Q489.677 368.194 490.145 367.651C496.321 360.492 504.004 358.525 513.018 357.936L513.114 399.24C513.134 404.274 512.431 410.662 513.369 415.549L513.075 415.639Z"/>
	<path fill="#12CDC6" d="M477.124 227.132C487.874 231.254 497.735 234.601 509.352 235.051C510.778 235.289 512.097 235.203 513.162 236.216C514.391 249.661 513.538 265.403 513.518 279.063C502.771 278.255 493.88 276.884 484.184 271.856C466.152 262.504 459.571 250.846 453.618 232.09C461.263 231.326 469.568 228.777 477.124 227.132Z"/>
	<defs>
		<linearGradient id="gradient_2" gradientUnits="userSpaceOnUse" x1="438.47955" y1="376.66507" x2="850.77924" y2="670.9704">
			<stop offset="0" stop-color="#FEB62F"/>
			<stop offset="1" stop-color="#FAA860"/>
		</linearGradient>
	</defs>
	<path fill="url(#gradient_2)" d="M473.547 100.218C487.097 110.696 495.892 110.667 512.47 110.468C527.063 110.338 537.884 109.272 550.315 101.009C560.109 109.725 569.147 121.191 574.215 133.368C576.583 134.611 579.799 136.161 582.545 135.254C582.673 135.211 582.791 135.143 582.914 135.088L582.976 135.691C588.743 136.459 594.002 137.4 597.779 142.299C599.064 143.966 600.056 145.889 600.76 147.87L601.677 148.31C608.443 151.479 616.37 153.267 623.45 155.799Q644.862 163.442 665.287 173.425Q669.362 175.434 673.39 177.538Q677.417 179.641 681.395 181.837Q685.373 184.034 689.298 186.322Q693.224 188.61 697.095 190.988Q700.967 193.367 704.782 195.835Q708.597 198.302 712.354 200.858Q716.111 203.414 719.807 206.056Q723.504 208.698 727.138 211.426Q730.772 214.153 734.342 216.964Q737.912 219.775 741.415 222.668Q744.919 225.561 748.354 228.535Q751.79 231.509 755.156 234.562Q758.521 237.614 761.815 240.744Q765.109 243.874 768.329 247.08Q771.549 250.285 774.694 253.565Q777.839 256.844 780.907 260.196Q783.975 263.548 786.964 266.97Q789.953 270.392 792.862 273.882Q795.771 277.372 798.599 280.93Q801.426 284.487 804.17 288.108Q806.913 291.73 809.573 295.414Q812.232 299.099 814.804 302.844Q817.377 306.589 819.862 310.393Q822.347 314.197 824.744 318.058Q827.14 321.918 829.446 325.833Q831.751 329.749 833.966 333.716Q836.18 337.684 838.302 341.702Q840.423 345.72 842.451 349.786Q844.479 353.852 846.412 357.964Q848.345 362.077 850.181 366.232Q852.018 370.388 853.758 374.586Q855.498 378.783 857.14 383.02Q860.989 393.441 864.005 404.134L806.615 404.025C798.694 404.021 790.227 403.356 782.378 403.882C781.288 403.955 780.408 404.186 779.562 404.928C779.078 405.351 778.768 406.056 778.721 406.698C778.64 407.807 779.145 408.289 779.792 409.067C788.666 410.624 800.474 409.572 809.748 409.557C828.392 409.527 847.069 409.715 865.709 409.422C875.07 440.771 879.266 474.047 880.024 506.698C855.559 506.585 831.072 506.304 806.608 506.504L806.639 512.959L854.074 513.193C862.253 513.168 871.435 512.261 879.519 513.291L880.008 514.586C880.507 529.478 878.841 544.79 876.869 559.528C874.195 579.501 870.437 598.901 864.719 618.25C849.928 668.303 821.37 722.308 785.585 760.543C747.369 801.376 702.747 833.946 651.325 856.27C637.454 862.292 623.134 868.078 608.221 870.904L613.789 850.148C616.54 836.656 621.995 823.403 623.982 809.77C626.921 799.165 629.011 788.235 631.411 777.492L632.249 773.359Q634.828 761.876 637.061 750.32C638.083 747.911 638.331 744.525 638.683 741.924C640.641 737.108 643.355 719.369 644.574 713.263Q653.977 668.212 661.549 622.817C664.544 609.679 667.688 587.681 668.051 574.201C667.418 569.915 667.955 565.344 667.781 560.996C667.617 556.886 666.788 552.826 666.576 548.712C666.379 544.885 667.659 536.152 666.183 533.183L665.673 532.225C629.344 553.118 594.882 566.251 553.24 572.091C540.315 573.904 526.792 575.205 513.724 575.009C512.325 557.039 513.171 538.519 513.125 520.494L513.075 415.639L513.369 415.549C512.431 410.662 513.134 404.274 513.114 399.24L513.018 357.936C512.31 334.616 513.016 311.169 512.966 287.83L513.09 287.579C513.437 284.806 513.389 281.863 513.518 279.063C513.538 265.403 514.391 249.661 513.162 236.216C512.097 235.203 510.778 235.289 509.352 235.051C497.735 234.601 487.874 231.254 477.124 227.132C475.217 226.834 473.521 227.043 471.629 227.25L471.346 225.748L467.844 225.423C469.166 225.174 470.068 225.02 471.223 224.282C470.821 223.065 468.584 221.879 467.511 221.082C449.838 207.949 441.084 191.855 437.929 170.153Q436.751 170.044 435.584 169.852C430.857 169.087 426.305 166.521 423.578 162.518C420.471 157.957 420.543 153.149 421.651 147.993C422.851 145.318 424.194 142.813 426.263 140.698C430.483 136.383 435.597 135.43 441.364 135.312L441.684 136.137C442.331 137.837 442.201 139.302 443.674 140.442C444.796 140.446 445.703 140.337 446.793 140.069C451.873 125.487 462.604 111 473.547 100.218Z"/>
	<path fill="#3B2065" d="M683.294 622.008C683.519 624.355 683.951 626.452 684.618 628.713C684.923 630.558 685.246 631.784 686.83 632.989C686.971 633.096 687.125 633.186 687.272 633.285L687.614 633.476L686.29 634.262C686.159 634.929 686.002 635.112 686.285 635.752C687.596 635.438 687.945 635.087 689.213 635.726L688.936 637.144C687.848 637.135 686.741 636.993 685.731 636.563Q685.432 636.436 685.148 636.281Q684.863 636.126 684.595 635.943Q684.326 635.761 684.077 635.554Q683.827 635.347 683.599 635.117Q683.371 634.886 683.166 634.635Q682.961 634.383 682.782 634.113Q682.602 633.843 682.449 633.557Q682.297 633.271 682.173 632.971C680.691 629.389 681.915 625.397 683.294 622.008Z"/>
	<defs>
		<linearGradient id="gradient_3" gradientUnits="userSpaceOnUse" x1="687.89111" y1="492.19052" x2="654.75372" y2="496.38574">
			<stop offset="0" stop-color="#3B1656"/>
			<stop offset="1" stop-color="#292976"/>
		</linearGradient>
	</defs>
	<path fill="url(#gradient_3)" d="M633.624 358.564C639.046 363.879 642.685 371.044 647.19 377.121C650.275 382.142 653.175 387.197 655.921 392.411C662.26 405.087 668.378 417.737 673.38 431.019C690.346 476.073 693.639 523.456 692.976 571.196C692.778 585.45 691.161 599.859 691.246 614.069C689.803 619.235 685.725 623.386 684.618 628.713C683.951 626.452 683.519 624.355 683.294 622.008C684.273 619.321 686.35 617.027 687.026 614.2C689.218 605.033 688.992 575.996 689.029 565.428C689.291 488.613 678.227 433.532 637.122 368.09L636.717 367.638L636.798 368.086L636.278 367.423L636.412 366.75L637.899 366.656L638.168 366.305C637.525 363.352 634.379 361.917 633.624 358.564Z"/>
	<path fill="#12CDC6" d="M691.246 614.069C705.864 613.978 720.56 613.749 735.169 614.219C733.812 623.826 732.635 633.572 730.153 642.971C728.045 648.07 725.723 655.772 721.309 659.273Q719.323 660.632 717.298 661.93C716.169 663.69 714.932 665.225 713.548 666.79L713.953 668.855Q712.922 670.306 711.916 671.774C709.058 672.436 707.111 673.568 704.537 674.842C701.809 676.191 698.638 677.116 695.667 675.954C687.252 672.663 690.059 651.104 690.107 643.153C690.118 641.246 690.465 638.604 689.703 636.876L688.936 637.144L689.213 635.726C687.945 635.087 687.596 635.438 686.285 635.752C686.002 635.112 686.159 634.929 686.29 634.262L687.614 633.476L687.272 633.285C687.125 633.186 686.971 633.096 686.83 632.989C685.246 631.784 684.923 630.558 684.618 628.713C685.725 623.386 689.803 619.235 691.246 614.069Z"/>
	<path fill="#2F2F71" d="M717.298 661.93C719.725 655.96 719.767 649.543 720.925 643.289C721.206 641.768 721.455 640.029 722.822 639.104L723.606 639.623C725.086 645.452 722.683 653.591 721.309 659.273Q719.323 660.632 717.298 661.93Z"/>
	<path fill="#2F2F71" d="M687.272 633.285C689.48 631.491 691.648 629.6 694.024 628.032C694.653 637.744 694.19 647.679 694.141 657.421C694.123 660.914 693.627 665.081 694.309 668.468C694.545 669.637 695.134 670.437 696.018 671.214C697.372 672.402 698.573 673.036 700.421 673.007C702.017 672.3 702.703 671.408 703.314 669.823C705.572 663.962 704.055 641.886 705.085 640.262C705.284 639.947 705.69 639.827 705.993 639.61C707.271 639.76 707.358 639.616 708.163 640.591C709.327 648.218 708.528 656.908 708.428 664.669L708.711 664.05C711.894 656.932 712.997 648.713 713.006 640.956C713.742 639.82 713.78 639.839 715.07 639.402L716.273 639.86C718.537 645.289 714.326 660.588 712.613 666.562C712.922 666.649 713.227 666.799 713.548 666.79L713.953 668.855Q712.922 670.306 711.916 671.774C709.058 672.436 707.111 673.568 704.537 674.842C701.809 676.191 698.638 677.116 695.667 675.954C687.252 672.663 690.059 651.104 690.107 643.153C690.118 641.246 690.465 638.604 689.703 636.876L688.936 637.144L689.213 635.726C687.945 635.087 687.596 635.438 686.285 635.752C686.002 635.112 686.159 634.929 686.29 634.262L687.614 633.476L687.272 633.285Z"/>
	<path fill="#3B2065" d="M574.215 133.368C576.583 134.611 579.799 136.161 582.545 135.254C582.673 135.211 582.791 135.143 582.914 135.088L582.976 135.691C588.743 136.459 594.002 137.4 597.779 142.299C599.064 143.966 600.056 145.889 600.76 147.87L600.554 148.302C601.288 153.613 600.779 158.356 597.511 162.792C595.252 165.858 591.995 168.018 588.159 168.414C587.064 168.528 585.993 168.576 584.91 168.351C584.18 185.941 576.936 202.99 563.872 214.965C559.685 218.803 555.132 222.094 550.345 225.135C597.536 232.57 640.278 257.481 672.734 292.143C678.405 298.199 683.967 304.34 688.853 311.059C695.68 320.447 702.862 330.393 707.966 340.862C751.606 418.662 754.684 516.601 741.025 602.816C738.842 616.597 737.639 631.559 733.796 644.927C733.111 647.311 731.61 652.428 729.849 654.096C727.026 660.723 719.23 668.713 712.61 671.498C712.381 671.594 712.148 671.682 711.916 671.774Q712.922 670.306 713.953 668.855L713.548 666.79C714.932 665.225 716.169 663.69 717.298 661.93Q719.323 660.632 721.309 659.273C725.723 655.772 728.045 648.07 730.153 642.971C732.635 633.572 733.812 623.826 735.169 614.219C749.364 528.223 750.194 437.511 711.702 357.347C709.258 352.022 706.919 346.403 703.82 341.43C701.702 334.1 683.361 310.348 678.177 303.506C663.553 287.358 648.509 272.646 630.155 260.721C617.823 282.189 611.336 304.646 617.993 329.27C621.275 341.412 626.541 348.553 633.624 358.564C634.379 361.917 637.525 363.352 638.168 366.305L637.899 366.656L636.412 366.75L636.278 367.423L636.798 368.086L636.717 367.638L637.122 368.09C636.574 375.493 635.624 387.719 636.871 394.83C638.009 401.318 643.249 409.715 645.977 415.874Q652.745 430.819 658.043 446.346C669.435 479.623 670.908 513.662 669.696 548.548C669.419 556.508 669.671 566.52 668.051 574.201C667.418 569.915 667.955 565.344 667.781 560.996C667.617 556.886 666.788 552.826 666.576 548.712C666.379 544.885 667.659 536.152 666.183 533.183L665.673 532.225C667.088 528.498 665.928 516.13 665.743 511.713C664.467 481.261 656.991 453.22 645.603 425.044C642.716 417.901 635.227 404.623 633.79 398.347C632.084 390.898 633.375 371.729 633.334 363.267C625.489 354.307 619.22 345.103 615.408 333.724Q614.843 332 614.356 330.252Q613.869 328.505 613.461 326.737Q613.052 324.97 612.723 323.186Q612.395 321.402 612.146 319.605Q611.897 317.808 611.729 316.001Q611.561 314.195 611.474 312.383Q611.386 310.571 611.38 308.757Q611.374 306.943 611.449 305.13Q611.524 303.318 611.681 301.51Q611.837 299.703 612.073 297.904Q612.31 296.106 612.627 294.319Q612.944 292.533 613.341 290.763Q613.738 288.993 614.213 287.242Q614.688 285.491 615.241 283.764Q615.795 282.036 616.425 280.335Q617.055 278.633 617.76 276.962C620.36 270.681 623.758 264.803 626.8 258.735C610.783 248.686 595.336 241.391 577.392 235.396L568.718 232.843C561.114 230.419 553.009 229.852 545.332 227.737C533.389 232.434 522.259 235.164 509.352 235.051C497.735 234.601 487.874 231.254 477.124 227.132C475.217 226.834 473.521 227.043 471.629 227.25L471.346 225.748L467.844 225.423C469.166 225.174 470.068 225.02 471.223 224.282C470.821 223.065 468.584 221.879 467.511 221.082C449.838 207.949 441.084 191.855 437.929 170.153Q436.751 170.044 435.584 169.852C430.857 169.087 426.305 166.521 423.578 162.518C420.471 157.957 420.543 153.149 421.651 147.993C422.851 145.318 424.194 142.813 426.263 140.698C430.483 136.383 435.597 135.43 441.364 135.312L441.684 136.137C442.331 137.837 442.201 139.302 443.674 140.442C444.796 140.446 445.703 140.337 446.793 140.069C440.781 158.34 439.72 176.467 448.553 194.074C456.697 210.307 472.15 222.447 489.297 227.954Q492.156 228.878 495.08 229.568Q498.004 230.258 500.974 230.71Q503.944 231.162 506.941 231.373Q509.938 231.584 512.942 231.553C521.769 231.482 530.983 229.115 539.2 226.025Q540.717 225.465 542.204 224.829Q543.691 224.192 545.144 223.482Q546.597 222.771 548.013 221.988Q549.428 221.204 550.801 220.35Q552.175 219.497 553.504 218.574Q554.832 217.652 556.113 216.664Q557.393 215.675 558.622 214.623Q559.85 213.571 561.024 212.459Q562.198 211.346 563.314 210.175Q564.43 209.004 565.486 207.779Q566.541 206.553 567.533 205.275Q568.525 203.998 569.451 202.672Q570.377 201.346 571.235 199.974Q572.093 198.603 572.88 197.19Q573.667 195.777 574.382 194.326Q575.097 192.875 575.737 191.39C584.131 172.401 581.572 152.233 574.215 133.368Z"/>
	<path fill="#4A225D" d="M730.153 642.971C730.878 645.797 726.059 655.972 724.41 658.971C723.253 661.075 721.077 659.787 720.693 663.63C722.723 663.274 725.751 659.227 726.872 657.599C727.789 656.267 728.387 654.908 729.849 654.096C727.026 660.723 719.23 668.713 712.61 671.498C712.381 671.594 712.148 671.682 711.916 671.774Q712.922 670.306 713.953 668.855L713.548 666.79C714.932 665.225 716.169 663.69 717.298 661.93Q719.323 660.632 721.309 659.273C725.723 655.772 728.045 648.07 730.153 642.971Z"/>
	<path fill="#F7B33D" d="M434.643 139.548C438.173 139.33 440.488 140.034 443.676 141.379C440.826 149.466 439.516 157.28 437.92 165.641C436.681 166.331 435.423 166.034 434.072 165.9C433.911 165.845 433.748 165.796 433.589 165.735C429.979 164.348 427.049 161.957 425.441 158.377Q425.171 157.766 424.963 157.131Q424.756 156.496 424.613 155.844Q424.469 155.191 424.392 154.528Q424.315 153.864 424.304 153.197Q424.293 152.529 424.349 151.863Q424.405 151.197 424.527 150.541Q424.649 149.884 424.836 149.243Q425.023 148.601 425.273 147.982C427.097 143.442 430.346 141.344 434.643 139.548Z"/>
	<path fill="#F7B33D" d="M582.976 135.691C588.743 136.459 594.002 137.4 597.779 142.299C599.064 143.966 600.056 145.889 600.76 147.87L600.554 148.302C601.288 153.613 600.779 158.356 597.511 162.792C595.252 165.858 591.995 168.018 588.159 168.414C587.064 168.528 585.993 168.576 584.91 168.351L585.894 167.27C585.303 167.025 585.218 166.647 584.882 166.12C585.181 156.936 582.472 148.965 580.972 140.085L580.903 139.661C581.53 138.287 582.218 136.997 582.976 135.691Z"/>
	<path fill="#4A225D" d="M582.976 135.691C588.743 136.459 594.002 137.4 597.779 142.299C599.064 143.966 600.056 145.889 600.76 147.87L600.554 148.302C601.288 153.613 600.779 158.356 597.511 162.792C595.252 165.858 591.995 168.018 588.159 168.414C587.064 168.528 585.993 168.576 584.91 168.351L585.894 167.27C585.303 167.025 585.218 166.647 584.882 166.12C585.51 165.973 586.14 165.811 586.771 165.677C590.138 164.965 592.95 163.663 595.298 161.042C598.124 157.887 598.546 154.017 598.425 149.968C597.385 147.121 596.371 144.47 594.026 142.417C590.311 139.165 585.534 139.255 580.903 139.661C581.53 138.287 582.218 136.997 582.976 135.691Z"/>
	<path fill="#13B4A2" d="M630.155 260.721C648.509 272.646 663.553 287.358 678.177 303.506C683.361 310.348 701.702 334.1 703.82 341.43C706.919 346.403 709.258 352.022 711.702 357.347C706.58 360.82 701.134 363.747 695.895 367.034C682.539 375.413 669.141 383.819 655.921 392.411C653.175 387.197 650.275 382.142 647.19 377.121C642.685 371.044 639.046 363.879 633.624 358.564C626.541 348.553 621.275 341.412 617.993 329.27C611.336 304.646 617.823 282.189 630.155 260.721Z"/>
	<path fill="#DCCFBB" d="M647.19 377.121C656.069 372.136 664.56 366.265 673.183 360.84C683.46 354.373 693.825 348.354 703.82 341.43C706.919 346.403 709.258 352.022 711.702 357.347C706.58 360.82 701.134 363.747 695.895 367.034C682.539 375.413 669.141 383.819 655.921 392.411C653.175 387.197 650.275 382.142 647.19 377.121Z"/>
	<path fill="#F1B081" d="M512.47 110.468C527.063 110.338 537.884 109.272 550.315 101.009C560.109 109.725 569.147 121.191 574.215 133.368C581.572 152.233 584.131 172.401 575.737 191.39Q575.097 192.875 574.382 194.326Q573.667 195.777 572.88 197.19Q572.093 198.603 571.235 199.974Q570.377 201.346 569.451 202.672Q568.525 203.998 567.533 205.275Q566.541 206.553 565.486 207.779Q564.43 209.004 563.314 210.175Q562.198 211.346 561.024 212.459Q559.85 213.571 558.622 214.623Q557.393 215.675 556.113 216.664Q554.832 217.652 553.504 218.574Q552.175 219.497 550.801 220.35Q549.428 221.204 548.013 221.988Q546.597 222.771 545.144 223.482Q543.691 224.192 542.204 224.829Q540.717 225.465 539.2 226.025C530.983 229.115 521.769 231.482 512.942 231.553C513.503 220.98 513.341 209.639 512.721 199.066L515.726 198.561C513.801 198.448 512.253 198.294 510.441 197.615L510.591 196.856L513.007 196.218L513.396 196.094Q513.721 186.04 513.179 175.995C511.071 175.108 509.281 174.02 507.372 172.779C507.502 171.658 507.491 170.753 508.095 169.774L508.887 171.03C509.687 164.796 511.216 157.842 510.975 151.585L512.372 151.723C514.041 138.515 512.812 123.814 512.47 110.468Z"/>
	<path fill="#3B2065" d="M519.557 195.448C521.736 194.586 525.654 192.462 527.964 193.366C528.105 193.421 528.229 193.512 528.361 193.586C527.607 195.293 525.642 196.106 523.986 196.753Q522.439 197.351 520.88 197.92L519.557 195.448Z"/>
	<path fill="#3B2065" d="M519.557 195.448L520.88 197.92C519.201 198.179 517.42 198.582 515.726 198.561C513.801 198.448 512.253 198.294 510.441 197.615L510.591 196.856L513.007 196.218L513.396 196.094C515.431 196.097 517.537 195.698 519.557 195.448Z"/>
	<path fill="#3B2065" d="M507.372 172.779C507.502 171.658 507.491 170.753 508.095 169.774L508.887 171.03L512.996 172.477C514.49 172.655 515.092 172.579 516.295 173.527C516.109 174.602 516.057 174.84 515.021 175.431C514.547 175.702 513.682 175.861 513.179 175.995C511.071 175.108 509.281 174.02 507.372 172.779Z"/>
	<path fill="#FDE1A6" d="M510.975 151.585L512.372 151.723C512.498 155.819 514.411 169.426 512.996 172.477L508.887 171.03C509.687 164.796 511.216 157.842 510.975 151.585Z"/>
	<path fill="#3B2065" d="M540.114 131.748C543.842 131.729 552.116 130.685 555.081 132.886C555.326 134.212 555.219 133.938 554.532 134.966C553.193 135.912 550.635 135.555 549.03 135.554C543.646 135.65 537.877 136.497 532.768 134.435L532.939 132.85C535.307 131.916 537.61 131.87 540.114 131.748Z"/>
	<path fill="#3B2065" d="M541.042 141.064C542.52 141.004 544.223 140.955 545.657 141.33C547.597 141.837 549.302 143.189 550.296 144.921C551.174 146.452 551.36 148.232 550.872 149.923C550.036 152.826 548.08 154.192 545.585 155.638C543.912 155.754 542.261 155.84 540.669 155.21C538.549 154.369 536.83 152.569 535.928 150.494C535.152 148.711 535.116 146.708 535.94 144.937C537.001 142.656 538.77 141.833 541.042 141.064Z"/>
	<path fill="#EE7C96" d="M551.045 160.079C553.81 159.843 557.101 159.348 559.79 160.105C563.173 161.057 566.088 162.961 567.765 166.125C569.242 168.911 569.383 172.13 568.454 175.114C566.978 179.853 563.496 182.758 559.198 184.873C555.361 185.829 551.505 185.839 548.052 183.657C543.659 180.881 542.237 176.432 541.279 171.637C541.666 170.316 542.07 169 542.631 167.74C544.501 163.537 546.82 161.685 551.045 160.079Z"/>
	<path fill="#FDE1A6" d="M473.547 100.218C487.097 110.696 495.892 110.667 512.47 110.468C512.812 123.814 514.041 138.515 512.372 151.723L510.975 151.585C511.216 157.842 509.687 164.796 508.887 171.03L508.095 169.774C507.491 170.753 507.502 171.658 507.372 172.779C509.281 174.02 511.071 175.108 513.179 175.995Q513.721 186.04 513.396 196.094L513.007 196.218L510.591 196.856L510.441 197.615C512.253 198.294 513.801 198.448 515.726 198.561L512.721 199.066C513.341 209.639 513.503 220.98 512.942 231.553Q509.938 231.584 506.941 231.373Q503.944 231.162 500.974 230.71Q498.004 230.258 495.08 229.568Q492.156 228.878 489.297 227.954C472.15 222.447 456.697 210.307 448.553 194.074C439.72 176.467 440.781 158.34 446.793 140.069C451.873 125.487 462.604 111 473.547 100.218Z"/>
	<path fill="#3B2065" d="M492.206 192.16C499.83 193.368 504.688 195.906 513.007 196.218L510.591 196.856L510.441 197.615C512.253 198.294 513.801 198.448 515.726 198.561L512.721 199.066C504.831 198.902 498.194 197.689 492.206 192.16Z"/>
	<path fill="#542155" d="M507.372 172.779C507.285 172.624 507.188 172.474 507.112 172.313C505.712 169.346 507.631 155.687 509.047 152.665C509.423 151.864 510.193 151.864 510.975 151.585C511.216 157.842 509.687 164.796 508.887 171.03L508.095 169.774C507.491 170.753 507.502 171.658 507.372 172.779Z"/>
	<path fill="#3B2065" d="M468.429 131.041C473.474 130.633 487.097 129.795 491.606 131.485C492.687 131.89 492.748 132.158 493.227 133.135L492.565 134.93C486.777 135.869 475.286 135.582 469.388 134.82C468.306 133.442 468.508 132.757 468.429 131.041Z"/>
	<path fill="#2F2F71" d="M478.547 140.057C479.674 140.006 480.757 139.953 481.867 140.199C484.004 140.673 486.079 142.139 487.181 144.041Q487.363 144.361 487.512 144.697Q487.661 145.033 487.777 145.382Q487.893 145.731 487.973 146.089Q488.054 146.448 488.099 146.813Q488.145 147.178 488.154 147.545Q488.163 147.913 488.136 148.279Q488.109 148.646 488.046 149.008Q487.983 149.371 487.885 149.725C487.039 152.852 484.822 154.309 482.118 155.756C480.693 155.947 479.558 155.999 478.157 155.608C476.15 155.048 474.362 153.839 473.351 151.985C472.295 150.049 472.237 147.591 472.942 145.528C473.929 142.643 475.949 141.379 478.547 140.057Z"/>
	<path fill="#F7C7BA" d="M468.5 160.681C471.518 160.387 474.551 160.482 477.415 161.57C480.616 162.786 483.426 165.125 484.753 168.334C486.019 171.394 485.817 174.895 484.459 177.889C482.725 181.714 479.502 183.983 475.73 185.51C472.455 186.192 469.323 186.109 466.279 184.584Q465.691 184.286 465.135 183.932Q464.579 183.578 464.061 183.17Q463.543 182.762 463.068 182.304Q462.593 181.847 462.166 181.345Q461.739 180.843 461.364 180.3Q460.989 179.758 460.67 179.182Q460.35 178.605 460.09 177.999Q459.829 177.393 459.63 176.765C458.567 173.501 458.707 169.785 460.311 166.721C462.158 163.192 464.843 161.841 468.5 160.681Z"/>
	<path fill="#F1B081" d="M711.702 357.347C750.194 437.511 749.364 528.223 735.169 614.219C720.56 613.749 705.864 613.978 691.246 614.069C691.161 599.859 692.778 585.45 692.976 571.196C693.639 523.456 690.346 476.073 673.38 431.019C668.378 417.737 662.26 405.087 655.921 392.411C669.141 383.819 682.539 375.413 695.895 367.034C701.134 363.747 706.58 360.82 711.702 357.347Z"/>
	<path fill="#DF3D3E" d="M509.352 235.051C522.259 235.164 533.389 232.434 545.332 227.737C553.009 229.852 561.114 230.419 568.718 232.843L577.392 235.396C595.336 241.391 610.783 248.686 626.8 258.735C623.758 264.803 620.36 270.681 617.76 276.962Q617.055 278.633 616.425 280.335Q615.795 282.036 615.241 283.764Q614.688 285.491 614.213 287.242Q613.738 288.993 613.341 290.763Q612.944 292.533 612.627 294.319Q612.31 296.106 612.073 297.904Q611.837 299.703 611.681 301.51Q611.524 303.318 611.449 305.13Q611.374 306.943 611.38 308.757Q611.386 310.571 611.474 312.383Q611.561 314.195 611.729 316.001Q611.897 317.808 612.146 319.605Q612.395 321.402 612.724 323.186Q613.052 324.97 613.461 326.737Q613.869 328.505 614.356 330.253Q614.843 332 615.408 333.724C619.22 345.103 625.489 354.307 633.334 363.267C633.375 371.729 632.084 390.898 633.79 398.347C635.227 404.623 642.716 417.901 645.603 425.044C656.991 453.22 664.467 481.261 665.743 511.713C665.928 516.13 667.088 528.498 665.673 532.225C629.344 553.118 594.882 566.251 553.24 572.091C540.315 573.904 526.792 575.205 513.724 575.009C512.325 557.039 513.171 538.519 513.125 520.494L513.075 415.639L513.369 415.549C512.431 410.662 513.134 404.274 513.114 399.24L513.018 357.936C512.31 334.616 513.016 311.169 512.966 287.83L513.09 287.579C513.437 284.806 513.389 281.863 513.518 279.063C513.538 265.403 514.391 249.661 513.162 236.216C512.097 235.203 510.778 235.289 509.352 235.051Z"/>
	<path fill="#FDE1A6" d="M568.718 232.843L577.392 235.396Q577.155 236.881 576.846 238.352Q576.537 239.823 576.155 241.277Q575.774 242.732 575.322 244.165Q574.87 245.599 574.348 247.009Q573.826 248.419 573.235 249.801Q572.645 251.184 571.987 252.536Q571.329 253.888 570.606 255.206Q569.883 256.524 569.096 257.804Q568.309 259.085 567.459 260.326Q566.61 261.567 565.701 262.764Q564.793 263.962 563.826 265.113Q562.859 266.264 561.837 267.367Q560.815 268.47 559.74 269.521Q558.665 270.572 557.54 271.569Q556.415 272.566 555.242 273.507Q554.07 274.447 552.852 275.329C541.565 283.387 526.828 287.271 513.09 287.579C513.437 284.806 513.389 281.863 513.518 279.063C525.408 279.151 538.144 274.95 547.675 267.851C558.522 259.774 566.698 246.227 568.718 232.843Z"/>
	<path fill="#BD2037" d="M513.018 357.936C521.538 358.66 528.999 361.802 534.614 368.445C539.434 374.148 541.268 381.316 540.544 388.66C539.768 396.516 536.246 404.086 530.027 409.091C525.739 412.542 518.99 415.762 513.369 415.549C512.431 410.662 513.134 404.274 513.114 399.24L513.018 357.936Z"/>
	<path fill="#13B4A2" d="M509.352 235.051C522.259 235.164 533.389 232.434 545.332 227.737C553.009 229.852 561.114 230.419 568.718 232.843C566.698 246.227 558.522 259.774 547.675 267.851C538.144 274.95 525.408 279.151 513.518 279.063C513.538 265.403 514.391 249.661 513.162 236.216C512.097 235.203 510.778 235.289 509.352 235.051Z"/>
</svg>
