<?xml version="1.0" encoding="utf-8" ?>
<svg xmlns="http://www.w3.org/2000/svg" xmlns:xlink="http://www.w3.org/1999/xlink" width="1024" height="1024">
	<path fill="#FEFEFE" d="M0 0L1024 0L1024 1024L0 1024L0 0Z"/>
	<path fill="#DCD2C0" d="M498.666 941.522C508.102 941.529 517.511 941.547 526.938 942.015C525.922 947.076 524.777 952.143 524.212 957.278C542.942 965.115 603.711 982.112 622.522 973.948C623.697 973.438 625.025 972.621 625.576 971.414C626.129 970.205 625.922 968.908 625.334 967.761C622.052 961.355 595.526 954.559 588.171 952.575C583.132 951.216 567.259 948.31 564.165 946.697L564.861 946.161L563.405 945.748C563.568 945.767 563.73 945.814 563.895 945.807C564.038 945.8 564.882 945.575 564.966 945.554L567.008 945.044C572.672 943.626 589.495 945.785 596.239 946.245C632.749 948.733 668.989 951.074 704.758 959.39C713.129 961.337 722.784 963.317 730.089 967.979C731.631 968.963 733.386 970.311 733.964 972.136C734.378 973.44 734.08 974.63 733.397 975.767C728.725 983.538 693.709 989.384 683.616 990.963C661.083 994.489 638.535 996.546 615.804 998.249Q574.986 1001.27 534.06 1001.82Q493.135 1002.37 452.25 1000.46C415.853 998.993 379.623 997.068 343.547 991.723C330.231 989.75 303.848 986.234 293.132 978.58C291.547 977.447 289.513 975.532 289.308 973.472C289.147 971.867 289.987 970.517 291.093 969.449C296.987 963.752 311.388 961.189 319.448 959.523C359.021 951.343 399.635 948.563 439.962 947.281C445.534 947.104 451.348 946.465 456.902 946.717C457.746 946.755 458.574 946.909 459.408 947.021C459.629 947.051 459.85 947.071 460.071 947.096C447.511 949.878 405.389 958.881 397.225 967.843C396.136 969.038 396.009 969.907 396.105 971.473C396.876 972.835 397.58 973.459 398.999 974.063C416.337 981.445 483.468 964.654 501.705 956.995Q500.308 949.234 498.666 941.522Z"/>
	<path fill="#010002" d="M379.327 202.034C370.69 175.374 368.001 152.165 376.509 125.017C387.266 90.6949 413.649 61.7146 445.386 45.314Q446.993 44.4703 448.621 43.6673Q450.249 42.8643 451.897 42.1025Q453.544 41.3408 455.211 40.6208Q456.877 39.9007 458.561 39.2229Q460.245 38.5451 461.945 37.9099Q463.646 37.2746 465.362 36.6824Q467.078 36.0902 468.808 35.5414Q470.538 34.9926 472.282 34.4876Q474.025 33.9825 475.781 33.5215Q477.537 33.0605 479.303 32.6439Q481.07 32.2272 482.847 31.8552Q484.623 31.4832 486.409 31.156Q488.194 30.8288 489.988 30.5467Q491.781 30.2646 493.58 30.0277Q495.38 29.7909 497.185 29.5994Q498.99 29.4079 500.8 29.2619Q502.609 29.116 504.421 29.0156Q506.234 28.9153 508.048 28.8606Q509.863 28.8059 511.678 28.7969Q513.493 28.7879 515.308 28.8246Q517.123 28.8613 518.936 28.9438Q520.75 29.0262 522.56 29.1542Q524.371 29.2823 526.178 29.4559Q527.985 29.6294 529.787 29.8485Q531.589 30.0675 533.384 30.3319Q535.18 30.5962 536.969 30.9057Q538.758 31.2152 540.538 31.5696Q542.318 31.924 544.089 32.3231Q545.86 32.7223 547.62 33.1659Q549.38 33.6095 551.129 34.0972Q552.877 34.585 554.613 35.1167Q556.348 35.6483 558.07 36.2235C594.393 47.9854 622.538 72.8593 639.74 106.705Q645.239 117.542 648.94 129.118C650.881 135.016 652.773 141.05 653.45 147.244C655.441 165.467 648.166 184.967 642.625 202.098C645.712 202.035 648.848 202.046 651.887 202.662Q652.601 202.809 653.306 202.991Q654.012 203.174 654.707 203.391Q655.403 203.608 656.087 203.86Q656.77 204.111 657.441 204.397Q658.111 204.682 658.767 205Q659.422 205.319 660.061 205.669Q660.7 206.02 661.32 206.402Q661.941 206.784 662.541 207.197Q663.142 207.609 663.721 208.051Q664.301 208.493 664.858 208.963Q665.414 209.433 665.947 209.93Q666.479 210.427 666.987 210.95Q667.494 211.474 667.974 212.021Q668.455 212.569 668.908 213.14Q669.36 213.711 669.784 214.304Q670.207 214.897 670.601 215.51C675.677 223.369 676.577 232.693 674.577 241.688Q674.32 242.817 674.007 243.931Q673.693 245.045 673.325 246.143Q672.957 247.24 672.534 248.318Q672.112 249.396 671.636 250.451Q671.16 251.506 670.633 252.537Q670.105 253.567 669.527 254.57Q668.948 255.572 668.321 256.545Q667.693 257.518 667.018 258.458Q666.343 259.398 665.622 260.304Q664.9 261.209 664.135 262.078Q663.37 262.946 662.562 263.775Q661.754 264.604 660.906 265.392Q660.058 266.18 659.172 266.925Q658.286 267.67 657.363 268.369Q656.441 269.069 655.485 269.722Q654.529 270.375 653.542 270.979C646.08 275.607 636.854 277.762 628.182 275.657C624.981 274.881 622.079 273.116 618.859 272.337L618.764 273.204C620.197 274.65 621.174 276.163 622.207 277.91C627.716 284.456 634.506 295.083 633.544 304.065C633.215 307.137 631.741 309.94 629.211 311.756C625.163 314.661 619.583 314.358 614.921 313.414C610.458 312.511 606.685 310.73 602.926 308.197C604.637 313.643 606.761 320.71 603.771 326.085C602.406 328.538 600.088 330.114 597.402 330.822C590.114 332.743 580.714 329.712 574.497 325.832Q573.854 325.429 573.222 325.009C559.153 337.457 544.148 349.442 525.665 354.434C526.439 360.32 527.628 366.051 529.054 371.811C542.752 373.727 558.775 371.698 568.133 384.055C576.055 394.517 580.467 409.144 585.453 421.254L608.655 477.458C615.259 493.709 621.341 510.68 630.141 525.878C624.716 545.867 620.375 566.169 615.759 586.356C614.367 592.44 612.577 598.422 611.169 604.497C607.104 622.035 603.7 639.939 600.589 657.672C608.518 669.247 611.373 687.471 608.647 701.164C608.122 703.802 607.019 707.688 604.471 709.124C603.526 709.656 602.549 709.612 601.509 709.638L599.524 709.695C595.922 711.638 593.153 717.974 588.186 716.436C587.254 716.147 586.309 715.605 585.436 715.165C581.759 715.971 578.689 720.212 574.612 717.956C573.857 717.538 573.884 717.163 573.579 716.417C577.345 706.092 581.138 697.924 581.012 686.673C580.994 685.039 581.141 682.691 580.51 681.175C580.404 680.92 580.201 680.717 580.046 680.488L579.305 680.94C578.528 684.901 577.51 688.896 575.992 692.643C572.561 685.437 570.782 678.961 573.715 671.126C576.239 664.386 580.882 659.658 586.246 655.068C588.804 636.852 592.257 618.823 595.035 600.652C597.468 584.736 599.947 568.951 602.78 553.089C604.285 544.665 605.628 536.149 607.787 527.863C602.075 518.347 598.318 506.934 594.297 496.582Q585.563 473.758 576.567 451.036C573.407 442.994 570.506 434.74 566.85 426.911Q570.237 464.775 569.973 502.789C570.028 513.986 570.563 525.497 569.946 536.659C570.556 559.163 571.713 581.768 571.485 604.279L565.228 607.864C561.183 632.333 561.252 657.135 561.346 681.844Q561.644 714.395 561.412 746.946Q561.225 796.342 558.144 845.641Q555.064 894.941 549.1 943.976C554.111 944.817 559.151 945.978 564.165 946.697C567.259 948.31 583.132 951.216 588.171 952.575C595.526 954.559 622.052 961.355 625.334 967.761C625.922 968.908 626.129 970.205 625.576 971.414C625.025 972.621 623.697 973.438 622.522 973.948C603.711 982.112 542.942 965.115 524.212 957.278C524.777 952.143 525.922 947.076 526.938 942.015C517.511 941.547 508.102 941.529 498.666 941.522Q500.308 949.234 501.705 956.995C483.468 964.654 416.337 981.445 398.999 974.063C397.58 973.459 396.876 972.835 396.105 971.473C396.009 969.907 396.136 969.038 397.225 967.843C405.389 958.881 447.511 949.878 460.071 947.096C465.535 946.104 471.037 945.394 476.539 944.651C474.523 932.815 473.492 920.689 472.224 908.755Q466.814 857.192 465.403 805.364Q463.089 750.82 462.241 696.235C462.023 681.452 462.677 666.662 462.333 651.869C462.001 637.573 460.944 623.325 460.512 609.04C458.444 608.028 456.48 606.713 454.508 605.521C454.562 559.203 453.756 512.756 455.973 466.484C456.62 452.985 456.934 439.363 458.451 425.928Q448.222 449.301 439.655 473.332C433.351 490.962 426.482 512.076 417.287 528.357C421.252 547.588 423.487 567.122 426.731 586.473C430.666 609.938 435.512 633.431 438.744 656.993C439.095 657.227 439.441 657.468 439.776 657.725C445.862 662.406 450.72 669.367 451.447 677.175C451.992 683.011 449.856 686.668 446.298 690.953C445.176 686.334 444.63 681.71 443.078 677.185L442.301 676.94L440.855 676.405C440.832 679.704 440.583 683.062 440.798 686.351C441.487 696.877 444.927 707.893 453.018 715.023C449.762 716.794 446.666 718.756 442.808 718.485C439.329 718.242 434.967 720.478 431.916 719.253C426.765 717.186 422.059 713.292 419.695 708.236C412.966 693.85 417.398 668.999 422.343 654.649L401.913 557.512C399.776 547.066 397.243 536.692 395.429 526.182C406.308 504.537 414.516 481.197 423.195 458.603C427.533 447.312 432.377 436.199 436.915 424.985C441.81 412.885 448.856 389.549 457.291 380.633C465.542 371.911 481.276 372.823 492.167 372.826C494.763 366.963 495.327 360.515 496.062 354.218C477.169 348.199 461.416 338.394 446.947 324.982C439.687 327.806 432.508 331.518 424.443 329.378C421.888 328.7 419.701 327.161 418.475 324.786C415.21 318.458 418.666 309.707 420.622 303.372C417.501 306.257 414.231 308.732 410.27 310.36C406.13 312.062 400.638 313.315 396.367 311.372C393.628 310.126 391.799 307.603 390.893 304.794C387.825 295.279 393.469 283.653 397.845 275.46C395.065 275.872 392.253 276.336 389.438 276.358Q388.444 276.369 387.451 276.331Q386.458 276.293 385.469 276.206Q384.479 276.119 383.494 275.983Q382.51 275.847 381.534 275.663Q380.557 275.478 379.591 275.245Q378.625 275.013 377.672 274.732Q376.718 274.452 375.78 274.125Q374.842 273.798 373.921 273.425Q373 273.052 372.098 272.633Q371.197 272.215 370.318 271.753Q369.438 271.29 368.582 270.785Q367.727 270.28 366.897 269.733Q366.068 269.185 365.266 268.598Q364.465 268.01 363.694 267.384Q362.922 266.758 362.183 266.094Q361.444 265.43 360.738 264.73C353.243 257.236 348.514 246.833 348.555 236.179C348.595 226.133 352.231 216.516 359.493 209.472C365.295 203.843 371.402 201.936 379.327 202.034Z"/>
	<path fill="#170000" d="M441.739 968.46L447.258 967.15C445.21 969.799 443.326 971.263 439.918 971.647C438.469 971.809 437.02 971.882 435.563 971.803C435.661 971.739 435.747 971.65 435.857 971.609C438.393 970.685 439.599 970.318 441.739 968.46Z"/>
	<path fill="#250101" d="M420.667 971.997C427.551 970.467 434.773 969.715 441.739 968.46C439.599 970.318 438.393 970.685 435.857 971.609C435.747 971.65 435.661 971.739 435.563 971.803C434.846 971.996 434.139 972.164 433.408 972.297C429.441 973.016 424.108 974.39 420.667 971.997Z"/>
	<path fill="#185B94" d="M463.012 628.527C462.092 624.407 461.108 614.515 461.72 610.352C463.108 609.88 463.623 610.316 464.978 610.793C464.699 615.635 465.648 624.487 463.012 628.527Z"/>
	<path fill="#7DC6D2" d="M450.366 676.57C450.757 680.55 450.814 684.344 448.239 687.638L447.357 687.719C445.278 684.928 446.187 679.536 443.924 677.291L443.078 677.185L442.301 676.94C444.626 675.777 447.665 677.466 450.366 676.57Z"/>
	<path fill="#701A1A" d="M528.096 943.114C533.964 944.412 540.002 944.817 545.982 945.315C544.015 948.953 538.731 952.42 538.35 956.363L539.055 957.846L526.224 953.571C527.321 950.087 527.877 946.751 528.096 943.114Z"/>
	<path fill="#7DC6D2" d="M592.786 687.242L593.368 689.116C595.575 689.798 597.028 688.824 599.019 687.853C599.541 693.868 599.844 700.954 598.02 706.784C596.984 710.093 595.254 712.637 592.117 714.174C590.434 714.998 589.119 715.407 587.324 714.766C586.747 713.074 589.16 709.997 589.864 708.199C592.453 701.585 592.465 694.24 592.786 687.242Z"/>
	<path fill="#701A1A" d="M471.492 946.837C480.383 945.835 489.095 945.295 497.828 943.195C498.249 946.966 498.956 950.49 499.919 954.16L485.838 957.325C485.616 956.138 485.145 955.567 484.374 954.684C481.053 950.885 476.68 947.194 471.492 946.837Z"/>
	<path fill="#7DC6D2" d="M424.294 691.498C426.77 690.824 428.999 690.005 431.35 688.989C431.343 689.303 431.33 689.616 431.328 689.929C431.283 699.15 434.924 708.913 438.71 717.196C437.111 718.438 434.656 718.382 432.696 718.278C430.095 716.995 428.523 714.585 427.612 711.857C425.55 705.69 425.158 697.973 424.294 691.498Z"/>
	<path fill="#5BAACA" d="M420.342 596.373C422.484 595.637 424.617 594.91 426.712 594.048Q429.681 612.675 433.066 631.232C434.421 638.9 436.204 646.707 436.685 654.485C430.161 645.455 424.977 609.721 420.342 596.373Z"/>
	<path fill="#7DC6D2" d="M582.328 682.731C585.362 683.736 588.535 684.867 591.731 685.197C591.133 692.274 591.608 701.158 588.261 707.559C586.522 710.886 582.03 717.091 578.011 717.761C576.716 717.977 576.499 717.658 575.504 716.931C575.109 715.949 574.874 715.602 575.177 714.534C575.908 711.961 577.798 709.441 578.775 706.853C581.777 698.9 582.197 691.152 582.328 682.731Z"/>
	<path fill="#855532" d="M423.942 299.338C427.553 301.784 431.177 307.74 434.156 311.139Q439.899 317.697 446.081 323.844L439.091 327.076C433.23 329.454 428.4 329.446 422.415 327.621C419.653 324.756 418.399 322.827 418.274 318.771C418.106 313.3 420.164 303.31 423.942 299.338Z"/>
	<path fill="#A3D5DF" d="M493.205 372.024C494.691 379.156 497.921 385.666 504.302 389.693C507.64 391.8 511.531 392.771 515.423 391.835C519.294 390.905 523.279 388.345 525.205 384.798C526.924 381.634 528.351 377.233 528.806 373.664L529.498 372.948C529.713 373.018 529.927 373.09 530.143 373.158C530.595 373.3 530.924 373.356 531.323 373.579C532.879 374.445 534.248 377.002 534.79 378.664C536.227 383.064 534.925 388.793 532.852 392.793C529.811 398.658 524.214 403.639 517.799 405.419Q517.278 405.566 516.75 405.686Q516.222 405.806 515.688 405.899Q515.155 405.992 514.617 406.058Q514.08 406.124 513.539 406.163Q512.999 406.201 512.458 406.212Q511.916 406.223 511.375 406.207Q510.834 406.19 510.294 406.146Q509.754 406.103 509.217 406.031Q508.681 405.96 508.148 405.862Q507.616 405.763 507.089 405.638Q506.562 405.512 506.042 405.36Q505.522 405.208 505.011 405.03Q504.5 404.852 503.998 404.648Q503.496 404.444 503.005 404.215Q502.515 403.986 502.036 403.732Q501.558 403.479 501.093 403.201C495.896 400.065 491.209 394.153 489.873 388.136C488.558 382.218 490.075 377.038 493.205 372.024Z"/>
	<path fill="#855532" d="M406.802 272.517L407.835 272.312C409.438 273.253 410.847 277.687 411.734 279.461C415.12 286.233 419.038 292.362 423.492 298.457C419.128 303.635 414.556 307.781 407.974 309.839C404.12 310.73 399.325 311.52 395.705 309.435C393.581 308.212 392.318 306.172 391.684 303.848C389.188 294.687 394.728 282.843 399.3 275.167C401.842 274.397 404.315 273.447 406.802 272.517Z"/>
	<path fill="#5BAACA" d="M497.11 354.484C506.339 356.599 515.058 357.283 524.302 354.747C525.038 358.912 526.001 370.324 528.96 372.838L529.498 372.948L528.806 373.664C528.351 377.233 526.924 381.634 525.205 384.798C523.279 388.345 519.294 390.905 515.423 391.835C511.531 392.771 507.64 391.8 504.302 389.693C497.921 385.666 494.691 379.156 493.205 372.024C496.119 366.617 496.538 360.495 497.11 354.484Z"/>
	<path fill="#862E28" d="M420.667 971.997C416.664 972.414 412.628 972.903 408.601 972.943C405.651 972.972 400.379 973.159 398.188 970.995C398.092 969.738 398.099 969.453 398.916 968.379C405.761 959.383 458.635 948.768 471.492 946.837C476.68 947.194 481.053 950.885 484.374 954.684C485.145 955.567 485.616 956.138 485.838 957.325C473.036 960.181 460.191 965.298 447.258 967.15L441.739 968.46C434.773 969.715 427.551 970.467 420.667 971.997Z"/>
	<path fill="#862E28" d="M545.982 945.315C558.61 945.899 614.156 958.521 622.846 967.41C623.506 968.085 623.764 968.649 623.936 969.586C623.233 971.004 622.513 971.469 620.995 971.94C604.392 977.097 556.559 963.042 539.055 957.846L538.35 956.363C538.731 952.42 544.015 948.953 545.982 945.315Z"/>
	<path fill="#7F556D" d="M419.605 595.423C419.278 587.801 418.478 579.928 417.328 572.384C415.785 562.254 409.075 534.198 411.016 525.823C412.887 517.746 419.789 502.358 423.011 493.955C430.191 475.226 437.465 456.674 445.259 438.192C448.54 430.412 451.629 422.483 455.316 414.888C457.518 410.354 461.168 401.562 465.499 398.825C463.309 406.914 460.984 415.282 458.098 423.15C455.783 429.463 452.878 435.617 450.315 441.838C447.242 449.3 444.457 456.903 441.62 464.459C434.419 483.636 426.677 510.697 416.005 527.783C420.288 549.405 422.799 571.238 426.685 592.902L419.605 595.423Z"/>
	<path fill="#855532" d="M613.781 267.916C615.386 269.612 616.78 271.43 618.203 273.277L618.764 273.204C620.197 274.65 621.174 276.163 622.207 277.91C621.825 278.812 621.805 278.359 622.421 279.251C626.555 285.231 630.65 291.384 632.059 298.651C632.704 301.977 632.738 305.774 630.659 308.636C628.828 311.158 625.851 312.235 622.848 312.524C613.94 313.378 607.134 310.025 600.347 304.621C601.633 307.947 602.94 311.241 603.572 314.765C604.266 318.631 604.6 323.312 602.08 326.63C600.384 328.864 597.66 329.782 594.952 330.002C588.597 330.519 579.709 328.49 574.848 324.218C574.574 322.72 576.969 320.741 578.013 319.557C592.241 303.436 604.229 287.256 613.781 267.916Z"/>
	<path fill="#A3D5DF" d="M411.474 598.687C414.512 598.097 417.39 597.295 420.342 596.373C424.977 609.721 430.161 645.455 436.685 654.485C438.573 661.987 448.326 663.097 450.366 676.57C447.665 677.466 444.626 675.777 442.301 676.94L440.855 676.405C440.439 674.797 439.973 673.23 439.45 671.654C439.712 676.886 439.332 682.141 439.639 687.367C440.195 696.835 443.961 708.885 451.146 715.399C447.765 716.673 445.17 717.903 441.507 717.131C435.692 713.142 433.205 695.836 431.35 688.989C428.999 690.005 426.77 690.824 424.294 691.498C421.965 697.483 426.105 708.897 427.622 714.919C425.958 713.783 424.179 712.662 422.942 711.042C414.84 700.429 417.757 679.115 420.286 667.157C421.148 663.082 423.359 658.286 423.088 654.105C422.7 648.115 420.925 641.845 419.668 635.98L411.474 598.687Z"/>
	<path fill="#A3D5DF" d="M597.296 594.519C602.081 596.045 606.49 597.307 611.518 597.667C609.291 606.217 607.874 614.986 606.091 623.638C603.716 635.162 601.089 646.465 599.485 658.135C606.787 669.501 610.433 689.403 607.266 702.52C606.817 704.378 605.826 706.688 604.077 707.681C602.716 708.454 601.788 708.455 600.303 708.354L599.323 707.779C600.15 701.821 601.719 693.501 599.974 687.713L599.019 687.853C597.028 688.824 595.575 689.798 593.368 689.116L592.786 687.242C592.677 686.501 592.508 685.771 592.354 685.038L591.731 685.197C588.535 684.867 585.362 683.736 582.328 682.731C581.893 681.362 581.65 680.013 580.484 679.075C579.368 679.312 579.699 679.021 579.128 679.947C577.219 683.046 576.832 688.055 575.757 691.573C573.013 684.171 571.714 677.72 575.119 670.177C577.697 664.467 582.389 659.259 587.307 655.454C590.125 635.043 593.695 614.805 597.296 594.519Z"/>
	<path fill="#A3D5DF" d="M407.646 271.241C401.371 273.51 395.214 274.975 388.498 274.906C378.191 274.8 368.692 271.236 361.462 263.772C353.924 255.989 349.796 245.913 350.007 235.069C350.188 225.775 353.87 216.219 360.748 209.812C365.492 205.393 371.294 202.84 377.848 203.209C384.953 203.608 392.535 206.917 397.268 212.243C397.247 220.771 397.106 229.406 398.044 237.891C399.251 244.3 400.764 250.561 402.268 256.902C403.65 261.826 405.576 266.573 407.646 271.241Z"/>
	<path fill="#5BAACA" d="M402.268 256.902C398.978 259.103 396.568 261.773 392.438 262.392C386.967 263.212 381.732 261.193 377.435 257.888C371.46 253.293 366.978 246.158 366.11 238.635C365.66 234.732 366.375 230.94 369.006 227.914Q369.432 227.43 369.905 226.991Q370.378 226.552 370.892 226.162Q371.406 225.773 371.957 225.436Q372.507 225.1 373.089 224.82Q373.67 224.541 374.276 224.32Q374.883 224.1 375.508 223.942Q376.133 223.783 376.772 223.688Q377.41 223.593 378.054 223.562C385.021 223.233 391.77 228.535 394.427 234.813C395.526 237.41 395.196 239.702 397.4 241.758C397.753 240.492 397.879 239.192 398.044 237.891C399.251 244.3 400.764 250.561 402.268 256.902Z"/>
	<path fill="#A3D5DF" d="M627.508 211.055C636.749 205.651 642.233 201.226 653.65 204.334C661.035 206.344 667.05 211.654 670.701 218.284C675.149 226.361 675.089 235.943 672.465 244.597Q672.143 245.659 671.77 246.704Q671.397 247.749 670.972 248.775Q670.548 249.8 670.074 250.804Q669.599 251.807 669.076 252.786Q668.553 253.764 667.982 254.716Q667.411 255.668 666.795 256.59Q666.178 257.513 665.516 258.404Q664.855 259.295 664.15 260.152Q663.445 261.01 662.699 261.831Q661.953 262.653 661.168 263.437Q660.382 264.221 659.559 264.965Q658.736 265.709 657.877 266.412Q657.018 267.115 656.126 267.775Q655.233 268.434 654.31 269.049Q653.386 269.664 652.433 270.233Q651.48 270.802 650.5 271.323Q649.78 271.706 649.041 272.052Q648.302 272.398 647.547 272.707Q646.791 273.016 646.021 273.286Q645.252 273.556 644.469 273.787Q643.687 274.018 642.893 274.21Q642.1 274.401 641.298 274.552Q640.497 274.704 639.688 274.814Q638.88 274.925 638.067 274.995Q637.254 275.065 636.439 275.094Q635.623 275.122 634.807 275.11Q633.992 275.098 633.177 275.044Q632.363 274.991 631.553 274.897Q630.742 274.802 629.938 274.668Q629.133 274.533 628.336 274.357Q627.539 274.182 626.752 273.967Q625.965 273.752 625.19 273.497C621.974 272.469 618.969 271.033 616.371 268.849C616.09 268.562 615.515 268.006 615.323 267.67C615.243 267.528 615.007 266.716 615.028 266.486C615.3 263.493 619.795 255.171 621.081 251.779Q624.498 242.882 626.214 233.507C627.296 225.982 627.525 218.636 627.508 211.055Z"/>
	<path fill="#5BAACA" d="M626.214 233.507L627.721 233.621C632.931 228.735 635.903 220.407 645.028 220.982C649.398 221.258 653.215 224.799 655.814 228.068C658.657 231.646 659.951 235.678 659.291 240.255C658.473 245.931 654.732 251.459 650.108 254.759C645.633 257.953 638.347 259.287 632.947 258.366C630.972 258.029 629.421 257.349 627.904 256.05L626.561 256.723C623.289 261.006 619.413 264.21 616.371 268.849C616.09 268.562 615.515 268.006 615.323 267.67C615.243 267.528 615.007 266.716 615.028 266.486C615.3 263.493 619.795 255.171 621.081 251.779Q624.498 242.882 626.214 233.507Z"/>
	<path fill="#7DC6D2" d="M626.561 256.723C625.519 255.665 624.455 254.503 624.279 252.952C624.127 251.624 624.529 250.962 625.251 249.896C626.38 249.38 626.313 249.317 627.473 249.719C628.812 251.614 628.246 253.9 627.904 256.05L626.561 256.723Z"/>
	<path fill="#855532" d="M541.929 111.23C550.016 109.939 558.16 108.5 566.35 108.089C585.898 107.107 614.186 110.725 632.057 118.967C634.391 120.044 643.355 125.711 644.988 125.629C645.787 125.588 645.85 125.474 646.367 125.12C646.433 125.233 646.505 125.343 646.566 125.46C647.996 128.205 648.966 131.908 649.841 134.899C656.659 158.208 648.418 180.269 641.318 202.376C636.446 204.388 631.973 207.363 627.471 210.085C627.296 191.038 624.74 170.695 614.407 154.31C598.648 129.322 569.503 117.577 541.929 111.23Z"/>
	<path fill="#2B78B1" d="M464.978 610.793C491.791 621.814 523.047 621.857 550.636 613.664C549.798 620.903 546.201 627.97 540.477 632.527C523.803 645.803 492.229 642.773 471.808 642.952C476.083 645.213 480.752 647.09 485.352 648.591C485.403 664.883 484.555 681.177 483.915 697.454C482.711 728.06 481.31 758.757 481.547 789.391Q482.474 848.205 485.293 906.959C485.871 917.313 488.363 927.596 488.704 937.883C484.759 937.904 480.94 937.928 477.033 938.56C476.966 938.571 476.898 938.577 476.831 938.586C473.905 909.053 470.779 879.72 468.801 850.083Q465.411 791.684 464.159 733.2C463.822 719.839 463.298 706.43 463.302 693.067C463.309 671.497 463.815 650.108 463.012 628.527C465.648 624.487 464.699 615.635 464.978 610.793Z"/>
	<path fill="#185B94" d="M550.636 613.664C555.252 612.006 559.815 610.342 564.294 608.333C560.459 626.097 560.084 649.579 559.854 667.874C559.524 694.098 560.023 720.264 560.043 746.484Q559.958 804.577 555.82 862.523C554.183 886.985 552.239 914.384 548.527 938.556C548.527 940.402 548.127 942.255 547.825 944.075C542.633 943.617 537.509 943.073 532.355 942.28C532.417 940.174 532.786 938.222 533.218 936.163C534.415 929.012 534.042 920.983 534.349 913.702Q535.57 887.942 536.073 862.158Q536.829 823.601 536.471 785.038L535.288 724.672C535.021 699.288 535.883 673.828 535.165 648.452Q539.588 647.315 543.979 646.064L547.763 644.621C546.182 643.864 537.655 646.488 535.234 647.025C520.696 650.254 505.767 648.697 491.077 647.655C490.635 661.785 489.501 675.923 488.764 690.043Q487.555 717.02 486.978 744.017Q485.748 843.691 492.056 943.172Q484.902 943.913 477.727 944.398L476.831 938.586C476.898 938.577 476.966 938.571 477.033 938.56C480.94 937.928 484.759 937.904 488.704 937.883C488.363 927.596 485.871 917.313 485.293 906.959Q482.474 848.205 481.547 789.391C481.31 758.757 482.711 728.06 483.915 697.454C484.555 681.177 485.403 664.883 485.352 648.591C480.752 647.09 476.083 645.213 471.808 642.952C492.229 642.773 523.803 645.803 540.477 632.527C546.201 627.97 549.798 620.903 550.636 613.664Z"/>
	<defs>
		<linearGradient id="gradient_0" gradientUnits="userSpaceOnUse" x1="530.12152" y1="792.17548" x2="554.17468" y2="791.43811">
			<stop offset="0" stop-color="#20649E"/>
			<stop offset="1" stop-color="#3183B8"/>
		</linearGradient>
	</defs>
	<path fill="url(#gradient_0)" d="M535.165 648.452Q539.588 647.315 543.979 646.064C549.443 654.133 549.53 670.43 550.316 680.134C551.851 699.08 552.95 717.908 553.136 736.922C553.289 752.454 552.716 767.976 552.702 783.502C552.686 801.882 553.185 820.29 552.503 838.662C551.657 861.422 549.38 884.258 547.9 906.988C547.287 916.415 547.823 926.516 546.219 935.801C546.094 936.524 545.909 937.221 545.582 937.881C541.476 937.017 537.385 936.579 533.218 936.163C534.415 929.012 534.042 920.983 534.349 913.702Q535.57 887.942 536.073 862.158Q536.829 823.601 536.471 785.038L535.288 724.672C535.021 699.288 535.883 673.828 535.165 648.452Z"/>
	<path fill="#7F556D" d="M455.984 536.417C459.297 537.886 463.938 545.189 466.786 548.117C470.92 552.367 475.565 556.185 480.861 558.896C490.429 563.793 501.237 566.133 511.636 562.674C518.181 560.498 524.483 556.708 529.799 552.355C553.887 532.632 554.641 499.601 555.491 470.892C555.953 455.299 556.387 439.651 555.069 424.086C554.441 416.674 550.633 395.02 553.518 389.226L554.216 389.131C554.865 390.081 555.333 390.835 555.665 391.941C555.678 398.404 562.937 413.08 564.729 420.591C566.266 427.032 566.378 434.045 566.815 440.647Q568.399 464.766 568.954 488.93C569.004 491.575 568.448 503.499 569.34 505.264L569.973 502.789C570.028 513.986 570.563 525.497 569.946 536.659C569.664 535.311 569.205 533.87 569.38 532.489C568.972 533.299 569.064 533.633 569.089 534.506C569.292 541.446 569.114 548.445 569.291 555.406C569.697 571.44 570.388 587.526 570.409 603.564C544.499 618.771 508.502 622.051 479.552 614.478C471.231 612.301 462.873 609.273 455.514 604.769Q455.566 570.591 455.984 536.417Z"/>
	<path fill="#FEFEFE" d="M492.203 649.069C505.816 650.106 519.926 650.949 533.478 648.881C533.427 664.527 533.886 680.135 534.047 695.775C534.703 759.502 536.139 823.299 533.908 887.006Q533.357 903.8 532.533 920.583C532.224 927.291 532.431 934.862 530.868 941.384C529.854 942.3 528.286 942.067 526.938 942.015C517.511 941.547 508.102 941.529 498.666 941.522C496.871 941.957 495.071 942.447 493.249 942.753Q490.9 906.092 489.659 869.377Q488.419 832.662 488.288 795.927Q488.157 759.191 489.136 722.468Q490.115 685.745 492.203 649.069Z"/>
	<path fill="#946D4C" d="M380.763 202.165C369.358 170.168 369.087 140.442 383.801 109.358C399.9 75.3492 430.755 50.1141 465.914 37.6861Q467.576 37.1115 469.251 36.5779Q470.927 36.0444 472.615 35.5522Q474.303 35.06 476.003 34.6095Q477.703 34.159 479.413 33.7504Q481.123 33.3419 482.843 32.9755Q484.563 32.6091 486.291 32.2852Q488.02 31.9612 489.755 31.6798Q491.491 31.3985 493.233 31.1599Q494.976 30.9213 496.723 30.7257Q498.471 30.53 500.222 30.3774Q501.974 30.2248 503.729 30.1153Q505.484 30.0058 507.241 29.9395Q508.999 29.8733 510.757 29.8502Q512.515 29.8272 514.273 29.8474Q516.032 29.8676 517.789 29.931Q519.546 29.9945 521.301 30.1012Q523.057 30.2078 524.809 30.3576Q526.561 30.5074 528.309 30.7003Q530.056 30.8931 531.799 31.1289Q533.542 31.3646 535.278 31.6432Q537.014 31.9218 538.743 32.243Q540.472 32.5641 542.192 32.9277Q543.912 33.2914 545.623 33.6972Q547.334 34.103 549.035 34.5507Q550.735 34.9985 552.424 35.488Q554.113 35.9774 555.79 36.5083Q557.466 37.0392 559.129 37.6111Q560.792 38.183 562.44 38.7957Q564.088 39.4083 565.721 40.0613Q567.353 40.7143 568.97 41.4073Q570.586 42.1003 572.184 42.8328Q573.783 43.5653 575.363 44.3369Q576.889 45.0697 578.396 45.8398Q579.904 46.6099 581.392 47.417Q582.88 48.224 584.348 49.0674Q585.815 49.9108 587.262 50.79Q588.708 51.6693 590.133 52.5839Q591.557 53.4986 592.958 54.448Q594.36 55.3974 595.737 56.381Q597.115 57.3647 598.468 58.3819Q599.821 59.3992 601.149 60.4494Q602.476 61.4997 603.778 62.5823Q605.079 63.6649 606.353 64.7792Q607.627 65.8935 608.874 67.0389Q610.12 68.1843 611.338 69.36Q612.556 70.5357 613.745 71.741Q614.933 72.9463 616.091 74.1805Q617.25 75.4148 618.378 76.6771Q619.505 77.9395 620.602 79.2293Q621.698 80.519 622.763 81.8354Q623.827 83.1517 624.858 84.4939Q625.89 85.836 626.888 87.2032Q627.886 88.5703 628.85 89.9616Q629.815 91.3529 630.744 92.7676Q631.674 94.1822 632.569 95.6193Q633.463 97.0564 634.322 98.515Q635.181 99.9737 636.004 101.453Q636.826 102.932 637.613 104.432Q638.399 105.931 639.147 107.449Q639.896 108.967 640.608 110.503Q641.319 112.039 641.992 113.592Q642.666 115.145 643.3 116.715Q643.935 118.284 644.531 119.868Q645.127 121.452 645.684 123.051Q646.043 124.08 646.367 125.12C645.85 125.474 645.787 125.588 644.988 125.629C643.355 125.711 634.391 120.044 632.057 118.967C614.186 110.725 585.898 107.107 566.35 108.089C558.16 108.5 550.016 109.939 541.929 111.23C505.964 104.555 464.366 107.011 433.419 128.397C412.976 142.523 404.879 160.817 400.585 184.871C399.063 193.396 398.246 202.098 397.596 210.729C392.632 206.053 387.25 203.902 380.763 202.165Z"/>
	<path fill="#A27787" d="M533.336 373.794C540.49 374.079 547.949 374.242 554.838 376.354C560.297 378.027 564.411 380.801 567.692 385.478C575.386 396.445 579.779 410.869 584.936 423.218L611.646 487.909C617.076 500.812 622.285 513.795 628.849 526.176C622.317 549.196 617.542 572.968 612.072 596.274C606.729 595.971 602.167 594.875 597.105 593.154Q602.399 559.931 609.139 526.972L608.828 526.624C603.748 521.024 593.363 490.722 589.959 481.953L556.581 394.08L555.665 391.941C555.333 390.835 554.865 390.081 554.216 389.131L553.518 389.226C550.633 395.02 554.441 416.674 555.069 424.086C556.387 439.651 555.953 455.299 555.491 470.892C554.641 499.601 553.887 532.632 529.799 552.355C524.483 556.708 518.181 560.498 511.636 562.674C501.237 566.133 490.429 563.793 480.861 558.896C475.565 556.185 470.92 552.367 466.786 548.117C463.938 545.189 459.297 537.886 455.984 536.417C456.028 511.504 456.565 486.802 457.696 461.906C458.261 449.464 458.54 436.913 459.957 424.533C460.887 416.405 463.674 408.097 466.1 400.303C466.786 398.098 468.363 395.261 468.5 393.045C466.938 394.686 466.313 396.751 465.499 398.825C461.168 401.562 457.518 410.354 455.316 414.888C451.629 422.483 448.54 430.412 445.259 438.192C437.465 456.674 430.191 475.226 423.011 493.955C419.789 502.358 412.887 517.746 411.016 525.823C409.075 534.198 415.785 562.254 417.328 572.384C418.478 579.928 419.278 587.801 419.605 595.423C417.007 596.476 414.133 597.15 411.438 597.944C408.71 590.1 407.613 581.046 405.937 572.875Q400.985 549.735 396.706 526.462Q407.297 502.9 416.7 478.84L436.168 429.883C440.731 418.477 450.116 389.776 457.734 382.003C466.117 373.45 479.63 374.056 490.611 373.988Q490.215 375.006 489.838 376.032C487.659 381.982 487.715 387.829 490.511 393.601Q490.78 394.145 491.075 394.675Q491.37 395.204 491.691 395.719Q492.013 396.233 492.359 396.731Q492.705 397.229 493.076 397.709Q493.447 398.189 493.841 398.65Q494.235 399.111 494.652 399.552Q495.068 399.993 495.506 400.412Q495.944 400.832 496.402 401.229Q496.861 401.626 497.338 402Q497.816 402.374 498.311 402.724Q498.807 403.074 499.319 403.399Q499.831 403.724 500.359 404.023Q500.886 404.321 501.428 404.594Q501.97 404.866 502.525 405.111Q503.08 405.356 503.646 405.573Q504.213 405.79 504.789 405.979Q505.354 406.175 505.928 406.341Q506.502 406.507 507.084 406.644Q507.666 406.78 508.254 406.886Q508.842 406.992 509.435 407.068Q510.028 407.144 510.623 407.189Q511.219 407.234 511.817 407.248Q512.414 407.262 513.012 407.245Q513.609 407.228 514.205 407.181Q514.801 407.133 515.393 407.055Q515.986 406.977 516.573 406.868Q517.161 406.759 517.742 406.621Q518.323 406.482 518.897 406.313Q519.47 406.144 520.034 405.946Q520.598 405.748 521.151 405.521Q521.704 405.294 522.244 405.039Q522.784 404.784 523.311 404.501C529.417 401.266 533.782 395.522 535.694 388.929C537.373 383.137 536.226 378.834 533.336 373.794Z"/>
	<path fill="#7F556D" d="M556.581 394.08C557.738 394.62 558.373 395.059 559.09 396.134C567.275 408.427 571.918 423.285 577.752 436.73C586.504 456.902 596.094 477.091 603.587 497.779C606.486 505.784 611.162 518.403 609.139 526.972L608.828 526.624C603.748 521.024 593.363 490.722 589.959 481.953L556.581 394.08Z"/>
	<path fill="#A3D5DF" d="M502.098 109.218C528.348 107.813 559.52 114.255 582.425 126.942C601.156 137.317 616 153.412 621.867 174.261C627.081 192.793 628.324 220.794 623.647 239.608C620.293 253.099 613.556 267.219 606.696 279.312C591.75 305.655 567.056 333.951 539.816 347.512C534.199 350.309 528.423 352.186 522.389 353.851Q518.326 354.679 514.185 354.888C490.651 356.017 467.455 341.596 450.61 326.339C422.796 301.147 400.93 267.999 399.125 229.554C397.825 201.883 401.298 161.957 420.719 140.949C440.802 119.226 473.337 110.438 502.098 109.218Z"/>
	<path fill="#C58C3A" d="M544.68 154.094C548.961 154.887 551.876 160.683 555.439 163.121C559.517 165.913 565.014 169.105 569.704 170.776C573.082 171.98 582.03 172.754 584.258 174.896C584.801 175.418 584.547 175.915 584.502 176.598C579.433 176.983 574.462 177.254 569.432 176.306C561.545 174.818 550.983 169.887 546.55 162.951C544.661 159.995 543.999 157.521 544.68 154.094Z"/>
	<path fill="#C58C3A" d="M476.741 153.784L477.676 154.304C478.149 155.473 478.156 155.532 477.833 156.766C476.155 163.174 471.417 167.72 465.816 170.908C456.813 176.032 446.679 178.275 436.604 175.456C435.418 174.974 435.093 175.102 434.435 173.948C435.092 172.672 435.534 173.008 436.892 172.802C453.198 170.333 465.872 166.93 476.741 153.784Z"/>
	<path fill="#5BAACA" d="M561.409 184.639C571.067 183.615 582.339 186.319 590.299 191.927C599.385 198.328 604.958 208.532 606.844 219.349C609.013 231.787 606.552 245.722 599.122 256.074C592.7 265.022 583.76 269.216 573.115 270.96C563.579 271.658 554.025 270.229 545.894 264.95C536.502 258.853 530.521 248.931 528.259 238.07C525.67 225.637 527.275 212.358 534.376 201.673C541.025 191.669 549.823 186.963 561.409 184.639Z"/>
	<path fill="#DCD2C0" d="M533.183 229.083C533.389 229.195 533.603 229.294 533.803 229.418C536.234 230.933 538.186 237.592 539.683 240.172C546.327 251.618 560.718 256.407 573.262 254.658C584.154 253.139 591.797 246.937 598.216 238.324C599.213 236.987 600.163 235.591 601.346 234.412C601.395 240.149 596.859 247.983 593.134 252.197C587.064 259.064 578.355 262.638 569.302 263.109C560.213 263.583 551.92 260.529 545.226 254.389C538.031 247.79 533.634 238.871 533.183 229.083Z"/>
	<path fill="#FEFEFE" d="M533.183 229.083C531.897 220.112 534.852 210.227 540.29 203.05C545.442 196.251 553.024 191.52 561.515 190.346Q562.382 190.226 563.253 190.149Q564.125 190.072 565 190.038Q565.874 190.004 566.749 190.014Q567.624 190.023 568.497 190.075Q569.371 190.128 570.241 190.223Q571.11 190.319 571.974 190.457Q572.839 190.595 573.695 190.776Q574.551 190.957 575.397 191.18Q576.243 191.402 577.078 191.667Q577.912 191.931 578.732 192.236Q579.552 192.541 580.356 192.886Q581.16 193.232 581.946 193.616Q582.732 194.001 583.498 194.423Q584.265 194.846 585.009 195.306Q585.753 195.766 586.474 196.263Q587.195 196.759 587.89 197.29C595.606 203.189 600.324 212.824 601.575 222.345Q601.963 225.354 601.905 228.387Q601.848 231.42 601.346 234.412C600.163 235.591 599.213 236.987 598.216 238.324C591.797 246.937 584.154 253.139 573.262 254.658C560.718 256.407 546.327 251.618 539.683 240.172C538.186 237.592 536.234 230.933 533.803 229.418C533.603 229.294 533.389 229.195 533.183 229.083Z"/>
	<path fill="#010002" d="M555.537 220.028Q556.157 220.024 556.777 220.044C558.714 220.113 560.362 220.61 561.589 222.266C562.499 223.493 562.652 225.002 562.27 226.449C561.635 228.856 559.908 229.971 557.902 231.218C557.113 231.228 556.281 231.252 555.502 231.116C554.025 230.86 552.569 229.743 551.827 228.452C551.029 227.064 550.917 225.49 551.402 223.968C552.108 221.753 553.53 220.972 555.537 220.028Z"/>
	<path fill="#5BAACA" d="M451.431 184.156C461.257 182.648 470.964 185.64 478.918 191.377Q479.79 191.999 480.63 192.665Q481.471 193.33 482.277 194.036Q483.083 194.742 483.852 195.488Q484.622 196.234 485.354 197.017Q486.085 197.8 486.777 198.618Q487.469 199.437 488.119 200.289Q488.769 201.141 489.375 202.024Q489.982 202.908 490.544 203.82Q491.106 204.733 491.622 205.672Q492.137 206.611 492.606 207.575Q493.074 208.539 493.493 209.525Q493.913 210.512 494.283 211.517Q494.653 212.523 494.972 213.546Q495.291 214.569 495.559 215.607Q495.827 216.644 496.043 217.694Q496.259 218.744 496.422 219.803C498.433 232.308 494.446 245.04 487.068 255.175C480.497 264.202 470.451 268.615 459.686 270.357C450.185 271.387 441.525 268.982 433.811 263.374C423.829 256.117 417.036 244.234 415.26 232.077C413.551 220.383 417.16 208.872 424.215 199.511C431.015 190.489 440.372 185.766 451.431 184.156Z"/>
	<path fill="#DCD2C0" d="M423.815 211.246L423.836 211.693C423.979 215.475 423.466 219.24 423.493 223.023C423.557 231.938 426.76 240.623 433.406 246.756C440.028 252.866 449.696 255.093 458.537 254.599C466.524 254.154 473.692 251.092 479.05 245.003C481.931 241.729 488.581 228.277 490.935 227.51Q490.867 230.811 490.178 234.041C488.132 243.408 482.879 251.974 474.729 257.202Q473.996 257.67 473.242 258.101Q472.487 258.532 471.712 258.926Q470.937 259.319 470.144 259.675Q469.351 260.03 468.541 260.346Q467.732 260.662 466.907 260.938Q466.083 261.214 465.247 261.449Q464.41 261.684 463.563 261.878Q462.715 262.072 461.86 262.224Q461.004 262.377 460.142 262.487Q459.28 262.597 458.413 262.665Q457.547 262.732 456.678 262.758Q455.809 262.783 454.94 262.766Q454.071 262.748 453.204 262.688Q452.337 262.629 451.474 262.526Q450.611 262.424 449.754 262.28Q448.897 262.135 448.048 261.949C438.413 259.751 430.636 253.701 425.512 245.329C422.047 239.667 418.676 230.353 420.416 223.699C421.421 219.855 421.115 214.372 423.815 211.246Z"/>
	<path fill="#FEFEFE" d="M423.815 211.246C428.21 201.968 434.345 195.171 444.211 191.644C452.892 188.541 463.019 188.947 471.343 192.939C479.652 196.923 486.199 204.637 489.11 213.34C490.684 218.045 490.963 222.584 490.935 227.51C488.581 228.277 481.931 241.729 479.05 245.003C473.692 251.092 466.524 254.154 458.537 254.599C449.696 255.093 440.028 252.866 433.406 246.756C426.76 240.623 423.557 231.938 423.493 223.023C423.466 219.24 423.979 215.475 423.836 211.693L423.815 211.246Z"/>
	<path fill="#010002" d="M464.32 219.991C465.212 219.951 466.14 219.894 467.029 219.991C468.378 220.138 469.681 220.918 470.531 221.963C471.594 223.269 472.073 224.824 471.78 226.496C471.351 228.952 470.108 230.237 468.112 231.589C467.336 231.601 466.492 231.648 465.724 231.536C464.146 231.305 462.827 230.43 461.908 229.138C460.893 227.712 460.524 226.173 460.887 224.455C461.35 222.266 462.486 221.146 464.32 219.991Z"/>
</svg>
